<?xml version="1.0" encoding="UTF-8"?><svg xmlns="http://www.w3.org/2000/svg" xmlns:xlink="http://www.w3.org/1999/xlink" contentScriptType="text/ecmascript" width="375pt" zoomAndPan="magnify" contentStyleType="text/css" viewBox="0 0 375 374.999991" height="374.999991pt" preserveAspectRatio="xMidYMid meet" version="1.2"><defs><filter x="0%" y="0%" width="100%" xmlns:xlink="http://www.w3.org/1999/xlink" xlink:type="simple" filterUnits="objectBoundingBox" xlink:actuate="onLoad" id="alpha" height="100%" xlink:show="other" xml:id="alpha"><feColorMatrix values="0 0 0 0 1 0 0 0 0 1 0 0 0 0 1 0 0 0 1 0" type="matrix" in="SourceGraphic"/></filter><clipPath xml:id="clip2" id="clip2"><path d="M 1.089844 1 L 360 1 L 360 256.210938 L 1.089844 256.210938 Z M 1.089844 1 "/></clipPath><clipPath xml:id="clip1" id="clip1"><rect x="0" width="361" y="0" height="257"/></clipPath></defs><g xml:id="surface1" id="surface1"><g mask="url(#mask0)" transform="matrix(1,0,0,1,6,60)"><g xml:id="surface5" id="surface5" clip-path="url(#clip1)"><g clip-rule="nonzero" clip-path="url(#clip2)"><path style=" stroke:none;fill-rule:nonzero;fill:rgb(14.898682%,48.629761%,9.408569%);fill-opacity:1;" d="M 353.589844 113.6875 L 247.195312 7.199219 C 238.964844 -1.039062 225.621094 -1.039062 217.390625 7.199219 C 209.15625 15.4375 209.15625 28.792969 217.390625 37.03125 L 287.242188 106.949219 L 22.257812 106.949219 C 10.613281 106.949219 1.175781 116.390625 1.175781 128.042969 C 1.175781 139.691406 10.613281 149.136719 22.257812 149.136719 L 288.363281 149.136719 L 217.390625 220.171875 C 209.15625 228.410156 209.15625 241.765625 217.390625 250.003906 C 221.503906 254.121094 226.898438 256.179688 232.292969 256.179688 C 237.683594 256.179688 243.082031 254.121094 247.195312 250.003906 L 353.589844 143.519531 C 361.820312 135.28125 361.820312 121.925781 353.589844 113.6875 "/></g></g><mask xml:id="mask0" id="mask0"><g filter="url(#alpha)"><rect x="0" width="375" y="0" height="374.999991" style="fill:rgb(0%,0%,0%);fill-opacity:0.8;stroke:none;"/></g></mask></g></g></svg>