<?xml version="1.0" encoding="UTF-8" standalone="no"?>
<svg
   width="230.9778pt"
   zoomAndPan="magnify"
   viewBox="0 0 230.9778 369.45019"
   height="369.4502pt"
   preserveAspectRatio="xMidYMid meet"
   version="1.2"
   id="svg81"
   sodipodi:docname="happy_carrot_with_bubble.svg"
   inkscape:version="1.1 (c68e22c387, 2021-05-23)"
   xmlns:inkscape="http://www.inkscape.org/namespaces/inkscape"
   xmlns:sodipodi="http://sodipodi.sourceforge.net/DTD/sodipodi-0.dtd"
   xmlns="http://www.w3.org/2000/svg"
   xmlns:svg="http://www.w3.org/2000/svg">
  <defs
     id="defs85" />
  <sodipodi:namedview
     id="namedview83"
     pagecolor="#ffffff"
     bordercolor="#666666"
     borderopacity="1.0"
     inkscape:pageshadow="2"
     inkscape:pageopacity="0.0"
     inkscape:pagecheckerboard="0"
     inkscape:document-units="pt"
     showgrid="false"
     inkscape:zoom="1.2346084"
     inkscape:cx="-63.177928"
     inkscape:cy="239.34715"
     inkscape:window-width="1271"
     inkscape:window-height="1081"
     inkscape:window-x="2228"
     inkscape:window-y="241"
     inkscape:window-maximized="0"
     inkscape:current-layer="surface1"
     fit-margin-top="0"
     fit-margin-left="0"
     fit-margin-right="0"
     fit-margin-bottom="0" />
  <g
     xml:id="surface1"
     id="surface1"
     transform="translate(-63.223995,-5.2333865)">
    <path
       style="fill:#a75312;fill-opacity:1;fill-rule:nonzero;stroke:none"
       d="m 214.69531,189.20312 c 0,0 44.67188,-23.47265 67.71094,-59.15234 0,0 3.10156,-0.89844 4,-1.38281 1.77344,-0.94922 2.58594,-2.02344 5.94922,-5.21875 3.73437,-3.55078 1.10156,-6.36719 -1.71875,-3.67188 -0.57031,0.55079 -1.23438,0.17579 -0.61719,-0.8789 0.61719,-1.05469 2.76563,-2.75781 0.11719,-4.42969 -2.15625,-1.36328 -3.77735,2.45313 -4.61328,2.14453 -0.83985,-0.3125 1.02734,-3.96094 -1.17578,-4.66797 -2.35157,-0.75 -3.36329,0.88282 -4.20313,4.22657 -1,3.96093 -1.81641,5.99609 -1.87891,8.0664 -0.0195,0.64063 0.37891,2.52735 0.37891,2.52735 -23.03906,35.67968 -67.71094,59.14843 -67.71094,59.14843 l 3.76172,3.28906"
       id="path2" />
    <path
       style="fill:#a75312;fill-opacity:1;fill-rule:nonzero;stroke:none"
       d="m 142.73047,189.20312 c 0,0 -44.671876,-23.47265 -67.710939,-59.15234 0,0 -3.097656,-0.89844 -4,-1.38281 -1.769531,-0.94922 -2.582031,-2.02344 -5.949219,-5.21875 -3.734374,-3.55078 -1.101562,-6.36719 1.71875,-3.67188 0.574219,0.55079 1.238282,0.17579 0.621094,-0.8789 -0.621094,-1.05469 -2.765625,-2.75781 -0.117187,-4.42969 2.15625,-1.36328 3.773437,2.45313 4.609375,2.14453 0.839844,-0.3125 -1.023438,-3.96094 1.175781,-4.66797 2.351563,-0.75 3.359375,0.88282 4.207031,4.22657 0.996094,3.96093 1.816406,5.99609 1.878906,8.0664 0.01953,0.64063 -0.382812,2.52735 -0.382812,2.52735 23.03906,35.67968 67.71484,59.14843 67.71484,59.14843 l -3.76562,3.28906"
       id="path4" />
    <path
       style="fill:#a75312;fill-opacity:1;fill-rule:nonzero;stroke:none"
       d="m 198.06641,256.00391 c 0,0 0.55078,66.28515 31.14453,102.13671 0,0 -9.0625,2.26563 -9.64453,16.54297 l 20.0664,-10.89843 -3.4414,-3.20704 C 205.60156,324.71875 204.9375,254.34375 204.9375,254.34375 l -6.87109,1.66016"
       id="path6" />
    <path
       style="fill:#a75312;fill-opacity:1;fill-rule:nonzero;stroke:none"
       d="m 152.24219,259.82812 c 0,0 -30.70313,58.77344 -20.57032,104.77344 0,0 -9.0664,-2.24609 -16.29296,10.08203 l 22.83593,-0.21093 -1.52343,-4.44141 c -10.13672,-46.00391 22.39843,-108.44531 22.39843,-108.44531 l -6.84765,-1.75782"
       id="path8" />
    <path
       style="fill:#2f3e19;fill-opacity:1;fill-rule:nonzero;stroke:none"
       d="m 220.60156,11.308594 c -7.36719,-11.023438 -33.91015,-5.070313 -37.38281,2.304687 -3.47656,7.394531 -10.10938,19.34375 -12.9375,18.363281 -2.83203,-0.984374 -2.72266,-3.882812 2.00391,-8.6875 4.72265,-4.808593 6.03906,-13.167968 -3.92188,-12.199218 -9.94531,0.957031 -6.1875,20.5625 -8.75391,24.761718 -3.3125,5.40625 -2.5625,-5.460937 -9.88671,-1.230468 -7.25,4.199218 -4.88282,22.851562 15.66796,37.960937 l 11.03516,26.367188 13.05469,-25.507813 c 0,0 -12.91406,-15.082031 -10.10938,-26.992187 1.13282,-4.804688 1.66016,-15.527344 12,-7.738281 6.96485,5.238281 13.03516,2.980468 13.96875,-4.960938 1.53125,-12.949219 -16.46093,-2.222656 -15.89843,-9.78125 0.66406,-8.910156 12.83203,-3.300781 21.04296,-0.214844 8.21094,3.0625 17.46875,-1.421875 10.11719,-12.445312"
       id="path10" />
    <path
       style="fill:#4f6624;fill-opacity:1;fill-rule:nonzero;stroke:none"
       d="m 238.375,55.722656 c -3.44531,-5.316406 6.03516,0.06641 5.39453,-8.359375 -0.66016,-8.429687 -18.87891,-14.441406 -41.76562,-2 -22.89454,12.4375 -24.86719,46.597657 -24.86719,46.597657 l 0.0742,22.566402 7.42578,-0.0273 -0.20313,-23.277344 C 189.07422,60.75 215.69141,66.960938 220.23828,68.90625 c 4.53906,1.957031 13.29688,8.230469 1.78516,14.15625 -7.75782,3.992188 -8.33985,10.4375 -1.58594,14.726562 11.02734,6.988278 9.14453,-13.855468 15.73047,-10.058593 7.74219,4.441406 -2.60156,12.957031 -8.92969,19.011721 -6.33203,6.0625 -6.30469,16.32812 6.84375,14.48828 13.14844,-1.83594 19.27344,-28.296876 14.12109,-34.628908 C 243.04297,80.285156 235.13672,69.128906 237.24609,67 c 2.10938,-2.109375 4.6836,-0.761719 6.97266,5.570312 2.28906,6.335938 9.26172,11.144532 12.71094,1.769532 C 260.375,64.980469 241.04297,59.859375 238.375,55.722656"
       id="path12" />
    <path
       style="fill:#4f6624;fill-opacity:1;fill-rule:nonzero;stroke:none"
       d="m 136.92969,78.65625 c 4.53125,-1.96875 31.11718,-8.335938 35.94531,22.10547 l -0.0352,13.77734 7.37891,-0.0234 -0.043,-13.07422 c 0,0 -2.18359,-34.144535 -25.16016,-46.433598 -22.96093,-12.304687 -41.15234,-6.179687 -41.74218,2.253907 -0.59766,8.429687 8.85547,2.992187 5.4414,8.328125 -2.64843,4.148437 -21.941402,9.394531 -18.4375,18.742187 3.50782,9.34375 10.44922,4.488281 12.69922,-1.859375 2.24219,-6.339844 4.8125,-7.707031 6.9336,-5.605468 2.12109,2.105468 -5.71094,13.308593 -10.82422,19.65625 -5.11719,6.363282 1.17969,32.804682 14.33203,34.554682 13.15625,1.7461 13.12109,-8.51171 6.7539,-14.53515 -6.37109,-6.01953 -16.76171,-14.47266 -9.04687,-18.964845 6.55859,-3.832031 4.80469,17.011715 15.78906,9.960935 6.73047,-4.32422 6.09766,-10.75781 -1.67578,-14.714841 -11.55469,-5.851563 -2.83203,-12.183594 1.69141,-14.167969"
       id="path14" />
    <path
       style="fill:#ff3f00;fill-opacity:1;fill-rule:nonzero;stroke:none"
       d="m 190.18359,105.48828 -27.88672,0.0859 c -30.01562,0.0977 -27.96484,48.34375 -25.97656,65.30078 2.72266,23.26562 5.60547,45.12109 11.78125,93.76562 5.87891,46.27344 20.72656,61.63282 28.82813,61.60547 12.0625,-0.0391 22.85937,-15.47265 28.4414,-61.78906 5.88282,-48.67578 8.6211,-70.55078 11.19532,-93.83594 1.88281,-16.96484 3.63671,-65.23046 -26.38282,-65.13281"
       id="path16" />
    <path
       style="fill:#e23800;fill-opacity:1;fill-rule:nonzero;stroke:none"
       d="m 143.11719,223.46484 c -0.28516,-2.23437 -0.5625,-4.39843 -0.82422,-6.49218 l 35.17578,3.17578 -34.35156,3.3164"
       id="path18" />
    <path
       style="fill:#cf7566;fill-opacity:1;fill-rule:nonzero;stroke:none"
       d="m 200.76562,292.67578 -0.2539,-0.0117 c 0.28125,-1.17578 0.5625,-2.38672 0.83594,-3.63281 0.0391,0.21484 0.0742,0.43359 0.10937,0.65625 -0.22656,1.01953 -0.45703,2.01953 -0.69141,2.98828"
       id="path20" />
    <path
       style="fill:#b8281e;fill-opacity:1;fill-rule:nonzero;stroke:none"
       d="m 201.45703,289.6875 c -0.0352,-0.22266 -0.0703,-0.44141 -0.10937,-0.65625 0.008,-0.0312 0.0117,-0.0586 0.0195,-0.0898 l 0.26172,-0.0156 c -0.0586,0.25391 -0.11329,0.50781 -0.17188,0.76172"
       id="path22" />
    <path
       style="fill:#e23800;fill-opacity:1;fill-rule:nonzero;stroke:none"
       d="M 200.51172,292.66406 172,290.91797 l 29.36719,-1.97656 c -0.008,0.0312 -0.0117,0.0586 -0.0195,0.0898 -0.27344,1.24609 -0.55469,2.45703 -0.83594,3.63281"
       id="path24" />
    <path
       style="fill:#e23800;fill-opacity:1;fill-rule:nonzero;stroke:none"
       d="m 148.00781,261.84375 c -0.17969,-1.44531 -0.36328,-2.85156 -0.53125,-4.24609 l 33.27735,2.03125 -32.7461,2.21484"
       id="path26" />
    <path
       style="fill:#e38270;fill-opacity:1;fill-rule:nonzero;stroke:none"
       d="m 216.98047,169.24219 -0.26563,-0.0156 c 0.0898,-0.875 0.17188,-1.8125 0.25,-2.8125 l 0.26953,-0.0156 c -0.082,1.01172 -0.16406,1.95703 -0.2539,2.84375"
       id="path28" />
    <path
       style="fill:#e23800;fill-opacity:1;fill-rule:nonzero;stroke:none"
       d="m 216.71484,169.22656 -7.17968,-0.4375 c -0.16016,-0.63672 -0.38672,-1.24609 -0.66407,-1.82812 l 8.09375,-0.54688 c -0.0781,1 -0.16015,1.9375 -0.25,2.8125 m -8.57812,-0.52344 -13.14453,-0.80078 12.43359,-0.84375 c 0.29688,0.51563 0.53125,1.06641 0.71094,1.64453"
       id="path30" />
    <path
       style="fill:#cf7566;fill-opacity:1;fill-rule:nonzero;stroke:none"
       d="m 207.22656,251.37109 -0.26562,-0.0156 c 0.15625,-1.31641 0.3164,-2.60938 0.46484,-3.88281 l 0.26953,-0.0156 c -0.16015,1.28125 -0.30859,2.58594 -0.46875,3.91406"
       id="path32" />
    <path
       style="fill:#e23800;fill-opacity:1;fill-rule:nonzero;stroke:none"
       d="m 206.96094,251.35547 -30.00391,-1.82813 30.46875,-2.05468 c -0.14844,1.27343 -0.30859,2.5664 -0.46484,3.88281"
       id="path34" />
    <path
       style="fill:#e23800;fill-opacity:1;fill-rule:nonzero;stroke:none"
       d="m 135.58984,153.79687 c -0.0117,-2.5039 0.043,-5.11718 0.19532,-7.76953 l 41.45703,3.7461 -41.65235,4.02343"
       id="path36" />
    <path
       style="fill:#e38270;fill-opacity:1;fill-rule:nonzero;stroke:none"
       d="m 214.03906,194.9375 -0.26172,-0.0156 c 0.12891,-1.09765 0.25391,-2.17968 0.37891,-3.25 l 0.26562,-0.0156 c -0.1289,1.07812 -0.2539,2.17187 -0.38281,3.28125"
       id="path38" />
    <path
       style="fill:#e23800;fill-opacity:1;fill-rule:nonzero;stroke:none"
       d="m 213.77734,194.92187 -25.09375,-1.53515 25.47266,-1.71485 c -0.125,1.07032 -0.25,2.15235 -0.37891,3.25"
       id="path40" />
    <path
       style="fill:#4f760b;fill-opacity:1;fill-rule:nonzero;stroke:none"
       d="m 187.21094,69.5625 c 0,0 13.59375,-25.503906 33.96875,-27.816406 20.37109,-2.316406 13.85156,22.171875 -10.41016,18.773437 -18.19922,-2.558593 -23.55859,9.042969 -23.55859,9.042969"
       id="path42" />
    <path
       style="fill:#4f6624;fill-opacity:1;fill-rule:nonzero;stroke:none"
       d="m 184.58984,17.332031 c 0,0 13.48047,-12.832031 26.38672,-10.109375 12.91016,2.714844 3.95703,16.351563 -10.16015,9.359375 -10.59375,-5.253906 -16.22657,0.75 -16.22657,0.75"
       id="path44" />
    <path
       style="fill:#4f760b;fill-opacity:1;fill-rule:nonzero;stroke:none"
       d="m 169.52734,76.976562 c 0,0 -11.41406,-26.292968 -35.87109,-23.472656 -10.03906,1.167969 -6.87109,12.058594 0.0391,12.414063 6.91016,0.355469 27.90625,5.433593 35.83203,11.058593"
       id="path46" />
    <path
       style="fill:#350a02;fill-opacity:1;fill-rule:nonzero;stroke:none"
       d="m 209.14844,171.73828 c -0.36328,0 -0.66016,-0.29687 -0.66016,-0.66016 0,-0.82812 -0.12109,-1.625 -0.35156,-2.375 l 1.39844,0.0859 c 0.17968,0.73047 0.27734,1.5 0.27734,2.28906 0,0.36329 -0.29688,0.66016 -0.66406,0.66016 m -17.61328,0 c -0.36719,0 -0.66407,-0.29687 -0.66407,-0.66016 0,-5.22265 4.24219,-9.45703 9.47266,-9.45703 3.75391,0 6.99609,2.1836 8.52734,5.33985 l -1.44531,0.0977 c -0.35937,-0.63672 -0.80859,-1.21875 -1.32422,-1.73437 -1.47656,-1.47266 -3.50781,-2.37891 -5.75781,-2.37891 -2.25391,0 -4.28516,0.90625 -5.76172,2.37891 -1.47656,1.47656 -2.38281,3.5039 -2.38672,5.7539 0,0.36329 -0.29687,0.66016 -0.66015,0.66016"
       id="path48" />
    <path
       style="fill:#330702;fill-opacity:1;fill-rule:nonzero;stroke:none"
       d="m 209.53516,168.78906 -1.39844,-0.0859 c -0.17969,-0.57812 -0.41406,-1.1289 -0.71094,-1.64453 l 1.44531,-0.0977 c 0.27735,0.58203 0.50391,1.1914 0.66407,1.82812"
       id="path50" />
    <path
       style="fill:#350a02;fill-opacity:1;fill-rule:nonzero;stroke:none"
       d="m 162.69531,171.73828 c -0.36328,0 -0.65625,-0.29687 -0.65625,-0.66016 -0.004,-2.25 -0.91406,-4.27734 -2.38672,-5.7539 -1.48047,-1.47266 -3.51172,-2.37891 -5.76172,-2.37891 -2.2539,0 -4.28515,0.90625 -5.76171,2.37891 -1.47657,1.47656 -2.38282,3.5039 -2.38282,5.7539 0,0.36329 -0.30078,0.66016 -0.66406,0.66016 -0.36719,0 -0.66406,-0.29687 -0.66406,-0.66016 0,-5.22265 4.24219,-9.45703 9.47265,-9.45703 5.22657,0 9.46875,4.23438 9.46875,9.45703 0,0.36329 -0.29687,0.66016 -0.66406,0.66016"
       id="path52" />
    <path
       style="fill:#59070f;fill-opacity:1;fill-rule:nonzero;stroke:none"
       d="m 206.78125,190.10937 c -0.0781,-1.93359 -0.88281,-3.50781 -2.26172,-4.42968 -1.13281,-0.77344 -2.48047,-1.16016 -3.99219,-1.16016 -2.39843,0 -5.07812,1.00781 -7.35156,2.76563 l -0.008,0.008 -0.0117,0.004 c -4.51563,3.58204 -10.20703,5.55469 -16.03906,5.55469 -5.83594,0 -11.53125,-1.97265 -16.04297,-5.55469 l -0.008,-0.004 -0.004,-0.008 c -2.27734,-1.75782 -4.96094,-2.76563 -7.35938,-2.76563 -1.51171,0 -2.85546,0.38672 -3.99609,1.16016 -1.37891,0.92187 -2.18359,2.49609 -2.25781,4.42968 -0.125,3.08204 1.59375,6.42188 4.48828,8.71094 7.08203,5.625 16.02734,8.72266 25.17969,8.72266 9.14843,0 18.09375,-3.09766 25.18359,-8.72266 2.88672,-2.28906 4.60547,-5.6289 4.48047,-8.71094"
       id="path54" />
    <path
       style="fill:#f58fab;fill-opacity:1;fill-rule:nonzero;stroke:none"
       d="m 160.83984,204.15234 c 5.08985,2.21485 10.64063,3.39063 16.27735,3.39063 5.63281,0 11.18359,-1.17578 16.27734,-3.39063 -2.625,-2.89453 -8.92187,-4.9375 -16.27734,-4.9375 -7.35938,0 -13.65625,2.04297 -16.27735,4.9375"
       id="path56" />
  </g>
</svg>
