<?xml version="1.0" encoding="UTF-8" standalone="no"?>
<svg
   contentScriptType="text/ecmascript"
   width="327.91406pt"
   zoomAndPan="magnify"
   contentStyleType="text/css"
   viewBox="0 0 327.91406 370.36669"
   height="370.3667pt"
   preserveAspectRatio="xMidYMid meet"
   version="1.2"
   id="svg36"
   sodipodi:docname="logo1.svg"
   inkscape:version="1.1 (c68e22c387, 2021-05-23)"
   xmlns:inkscape="http://www.inkscape.org/namespaces/inkscape"
   xmlns:sodipodi="http://sodipodi.sourceforge.net/DTD/sodipodi-0.dtd"
   xmlns="http://www.w3.org/2000/svg"
   xmlns:svg="http://www.w3.org/2000/svg">
  <sodipodi:namedview
     id="namedview38"
     pagecolor="#ffffff"
     bordercolor="#666666"
     borderopacity="1.0"
     inkscape:pageshadow="2"
     inkscape:pageopacity="0.0"
     inkscape:pagecheckerboard="0"
     inkscape:document-units="pt"
     showgrid="false"
     fit-margin-top="0"
     fit-margin-left="0"
     fit-margin-right="0"
     fit-margin-bottom="0"
     inkscape:zoom="1.746"
     inkscape:cx="50.687285"
     inkscape:cy="248.28179"
     inkscape:window-width="3440"
     inkscape:window-height="1377"
     inkscape:window-x="1912"
     inkscape:window-y="32"
     inkscape:window-maximized="1"
     inkscape:current-layer="svg36" />
  <defs
     id="defs5">
    <clipPath
       xml:id="clip1"
       id="clip1">
      <path
         d="M 26,120 H 354.05469 V 372 H 26 Z m 0,0"
         id="path2" />
    </clipPath>
  </defs>
  <g
     xml:id="surface1"
     id="surface1"
     transform="translate(-26.140625,-1.3754879)">
    <path
       style="fill:#5c4730;fill-opacity:1;fill-rule:nonzero;stroke:none"
       d="m 318.46484,134.75781 c 0,12.96094 -11.35937,23.87891 -15.46875,35.53125 -4.21484,11.95703 -2.28515,27.52735 -10.08984,37.41406 -7.76172,9.82813 -23.42188,11.65235 -34,18.75391 -10.3125,6.92188 -17.82031,20.78125 -30.13672,24.46094 -11.77344,3.52734 -25.66406,-3.76563 -38.67187,-3.76563 -13.00782,0 -26.89844,7.29297 -38.67579,3.76563 -12.3125,-3.67969 -19.82421,-17.53906 -30.13281,-24.46094 -10.57812,-7.10156 -26.238279,-8.92969 -33.999998,-18.75391 -7.808593,-9.89062 -5.875,-25.45703 -10.089843,-37.41406 -4.109375,-11.65234 -15.46875,-22.57031 -15.46875,-35.53125 0,-13.10156 11.429687,-24.73828 15.625,-37.332029 4.136719,-12.417969 1.808593,-28.484375 9.335937,-39.359375 7.511719,-10.84375 23.371094,-14.335937 33.589844,-22.597656 10.27344,-8.316406 17.13281,-23.113281 29.46484,-27.761719 12.17188,-4.589843 26.83985,1.949219 40.35157,1.949219 13.51171,0 28.17578,-6.539062 40.34765,-1.949219 12.33594,4.648438 19.19531,19.445313 29.46875,27.761719 10.21875,8.261719 26.07813,11.753906 33.58985,22.597656 7.52734,10.875 5.19921,26.941406 9.33593,39.359375 4.19141,12.593749 15.625,24.230469 15.625,37.332029"
       id="path7" />
    <path
       style="fill:#0f0c0c;fill-opacity:1;fill-rule:nonzero;stroke:none"
       d="m 190.09766,242.45703 c 5.80859,0 11.5664,1.27734 17.1289,2.51563 7.39844,1.64062 14.38672,3.1914 20.19531,1.44921 6.27344,-1.8789 11.35547,-7.20703 16.73829,-12.84765 3.7539,-3.9336 7.63671,-8.00391 12.125,-11.01563 4.59765,-3.08593 9.89843,-5.19531 15.01562,-7.23828 7.20703,-2.86719 14.00391,-5.57422 17.91406,-10.52344 3.99219,-5.05859 5.00391,-12.40625 6.07422,-20.17968 0.73047,-5.31641 1.48828,-10.8125 3.27344,-15.88672 1.71484,-4.875 4.50391,-9.4961 7.19922,-13.96094 4.11328,-6.82422 8.0039,-13.27344 8.0039,-20.01172 0,-6.76172 -3.85937,-13.49609 -7.9414,-20.61718 -2.78516,-4.86719 -5.66797,-9.89844 -7.44531,-15.230474 -1.79688,-5.394531 -2.46094,-11.25 -3.10157,-16.910156 -0.91406,-8.0625 -1.76953,-15.671875 -5.64062,-21.257812 -3.85938,-5.566407 -10.67578,-9.054688 -17.89453,-12.746094 -5.08594,-2.601563 -10.34766,-5.292969 -14.78516,-8.882813 -4.35156,-3.519531 -8.03516,-7.972656 -11.59375,-12.277343 -5.24219,-6.339844 -10.19141,-12.328126 -16.57812,-14.734376 -6.4375,-2.425781 -14.23829,-1.066406 -22.50391,0.375 -5.28516,0.925782 -10.74609,1.875 -16.18359,1.875 -5.4375,0 -10.90235,-0.949218 -16.1836,-1.875 -8.26562,-1.441406 -16.0664,-2.800781 -22.5039,-0.375 -6.38672,2.40625 -11.33594,8.394532 -16.58204,14.734376 -3.55859,4.304687 -7.23828,8.757812 -11.59374,12.277343 -4.4336,3.589844 -9.69532,6.28125 -14.78125,8.882813 C 101.23438,51.6875 94.414062,55.175781 90.558594,60.742188 86.6875,66.328125 85.828125,73.9375 84.914062,82 c -0.636718,5.660156 -1.300781,11.515625 -3.097656,16.910156 -1.777344,5.332034 -4.660156,10.363284 -7.449218,15.230474 -4.078126,7.12109 -7.9375,13.85546 -7.9375,20.61718 0,6.73828 3.890624,13.1875 8.003906,20.01172 2.695312,4.46484 5.480468,9.08594 7.199218,13.96094 1.785157,5.07422 2.542969,10.57031 3.273438,15.88672 1.070312,7.77343 2.082031,15.12109 6.074219,20.17968 3.90625,4.94922 10.707031,7.65625 17.910161,10.52344 5.12109,2.04297 10.41796,4.14844 15.01953,7.23828 4.48828,3.00782 8.36718,7.07422 12.12109,11.01172 5.38281,5.64453 10.46875,10.97266 16.74219,12.85156 5.8125,1.74219 12.80078,0.19141 20.1914,-1.44921 5.56641,-1.23829 11.32422,-2.51563 17.13282,-2.51563 z m 31.58593,14.12109 c -5.49609,0 -11.05859,-1.23437 -16.49218,-2.4375 -5.3086,-1.17968 -10.32032,-2.28906 -15.09375,-2.28906 -4.77735,0 -9.78516,1.10938 -15.09375,2.28906 -8.2461,1.82813 -16.76954,3.72266 -24.92969,1.27735 -8.66016,-2.58985 -14.85938,-9.08594 -20.85156,-15.36719 -3.5586,-3.73437 -6.92188,-7.26172 -10.55469,-9.69531 -3.76953,-2.53125 -8.37891,-4.36719 -13.26172,-6.3125 -8.035156,-3.19531 -16.339844,-6.50781 -21.808594,-13.4336 -5.578125,-7.0664 -6.8125,-16.04296 -8.007812,-24.71875 -0.699219,-5.07031 -1.355469,-9.86328 -2.828125,-14.04296 -1.398438,-3.96485 -3.820313,-7.98438 -6.382813,-12.23047 -4.601562,-7.62891 -9.351562,-15.50782 -9.351562,-24.85938 0,-9.26172 4.667968,-17.40625 9.183594,-25.28906 2.675781,-4.66797 5.203124,-9.07812 6.679687,-13.523438 1.488281,-4.460937 2.070313,-9.585937 2.679687,-15.003906 1.007813,-8.859375 2.046876,-18.015625 7.257813,-25.546875 5.199219,-7.507812 13.40625,-11.703125 21.339845,-15.757812 4.87109,-2.492188 9.47266,-4.847657 13.14844,-7.820313 3.62109,-2.929687 6.84765,-6.828125 10.26172,-10.964844 5.79687,-7.003906 11.78906,-14.25 20.50781,-17.539062 8.84375,-3.3320312 18.30078,-1.683594 27.4414,-0.085938 5.1211,0.894532 9.94922,1.734376 14.57032,1.734376 4.61718,0 9.44921,-0.839844 14.57031,-1.734376 9.14062,-1.601562 18.59375,-3.2460932 27.4414,0.085938 8.71875,3.289062 14.71094,10.535156 20.50391,17.539062 3.41797,4.136719 6.64453,8.035157 10.26172,10.964844 3.67969,2.972656 8.28125,5.328125 13.15234,7.820313 7.9336,4.054687 16.13672,8.25 21.33985,15.757812 5.21093,7.53125 6.25,16.6875 7.2539,25.546875 0.61328,5.417969 1.19532,10.542969 2.6836,15.003906 1.47656,4.445318 4.0039,8.855468 6.67968,13.523438 4.51172,7.88281 9.1836,16.02734 9.1836,25.28906 0,9.35156 -4.75391,17.23828 -9.35156,24.85938 -2.5625,4.25 -4.98438,8.26562 -6.38282,12.23047 -1.47656,4.17968 -2.13281,8.97265 -2.82812,14.04687 -1.19531,8.67969 -2.42969,17.64844 -8.00781,24.71484 -5.46875,6.92969 -13.77735,10.23829 -21.8125,13.4375 -4.87891,1.94141 -9.48829,3.77735 -13.25782,6.3086 -3.63281,2.4375 -6.99609,5.96484 -10.5625,9.69922 -5.98828,6.27734 -12.18359,12.77343 -20.84375,15.36328 -2.77734,0.83203 -5.60156,1.16015 -8.4375,1.16015"
       id="path9" />
    <path
       style="fill:#c7b394;fill-opacity:1;fill-rule:nonzero;stroke:none"
       d="m 348.76562,143.52734 c 0,-9.66406 -7.84375,-17.49609 -17.51562,-17.49609 H 48.945312 c -9.671874,0 -17.515624,7.83203 -17.515624,17.49609 v 4.17578 c 0,9.66016 7.84375,17.4961 17.515624,17.4961 -10.585937,44.60937 -10.546874,91.09375 0.136719,135.69531 1.933594,8.05859 -0.08594,16.55859 -5.523437,22.82031 l -3.824219,4.41407 c -8.144531,9.38671 -7.773437,23.71093 1.332031,32.17578 9.558594,8.89062 24.503906,8.02343 32.980469,-1.75 l 0.265625,-0.3086 c 6.460938,-7.44922 16.632812,-10.53125 26.14453,-7.92187 l 11.75781,3.22265 c 50.46094,13.82813 103.70313,13.91016 154.20703,0.2461 l 13.30079,-3.60156 c 9.49218,-2.56641 19.62109,0.51953 26.0625,7.94531 8.14453,9.39062 22.39062,11.0625 32.07812,3.26562 10.16797,-8.1875 11.43359,-23.08203 2.95703,-32.85937 l -4.1875,-4.82813 c -5.43359,-6.26172 -7.45312,-14.76172 -5.52344,-22.82031 10.6875,-44.60156 10.72657,-91.08594 0.14063,-135.69531 9.67187,0 17.51562,-7.83594 17.51562,-17.4961 v -4.17578"
       id="path11" />
    <g
       clip-rule="nonzero"
       clip-path="url(#clip1)"
       id="g15">
      <path
         style="fill:#0f0c0c;fill-opacity:1;fill-rule:nonzero;stroke:none"
         d="m 48.945312,131.31641 c -6.738281,0 -12.226562,5.47265 -12.226562,12.21093 v 4.17578 c 0,6.73047 5.488281,12.21094 12.226562,12.21094 h 6.691407 l -1.542969,6.5 c -10.351562,43.60938 -10.304688,89.6875 0.132812,133.25391 2.332032,9.72265 -0.160156,20.00781 -6.667968,27.50781 l -3.824219,4.41016 c -6.347656,7.32031 -5.933594,18.46875 0.9375,24.85547 3.546875,3.29687 8.160156,4.98046 12.984375,4.71093 4.832031,-0.25781 9.230469,-2.41015 12.390625,-6.0625 l 0.261719,-0.29687 c 7.757812,-8.9375 20.136718,-12.69141 31.550786,-9.5625 l 11.75781,3.21875 c 49.51172,13.5664 101.87109,13.64844 151.42187,0.24219 l 13.29688,-3.59766 c 11.38281,-3.07813 23.72265,0.68359 31.44922,9.58594 6.34765,7.3164 17.45312,8.48828 24.76171,2.60937 3.77344,-3.04297 6.08594,-7.36328 6.51954,-12.16797 0.42578,-4.8125 -1.08204,-9.47265 -4.24219,-13.11718 l -4.1875,-4.82422 c -6.50781,-7.50391 -9,-17.78907 -6.66797,-27.51172 10.4375,-43.56641 10.48047,-89.64453 0.13281,-133.25391 l -1.54297,-6.5 H 331.25 c 6.73828,0 12.22656,-5.48047 12.22656,-12.21094 v -4.17578 c 0,-6.73828 -5.48828,-12.21093 -12.22656,-12.21093 z m 7.722657,240.42578 c -7.148438,0 -13.914063,-2.65235 -19.207031,-7.57032 -10.984376,-10.21484 -11.757813,-27.93359 -1.71875,-39.5039 l 3.824218,-4.41016 C 43.839844,315.32422 45.480469,308.54687 43.9375,302.125 33.558594,258.8125 33.089844,213.10937 42.53125,169.55859 33.070312,166.78516 26.140625,158.03516 26.140625,147.70312 v -4.17578 c 0,-12.5625 10.230469,-22.77734 22.804687,-22.77734 H 331.25 c 12.57422,0 22.80469,10.21484 22.80469,22.77734 v 4.17578 c 0,10.33204 -6.92969,19.08204 -16.39063,21.85547 9.4375,43.55078 8.96485,89.25782 -1.40625,132.56641 -1.54297,6.42187 0.0977,13.19922 4.3711,18.13281 l 4.1875,4.82422 c 5.0625,5.83594 7.46875,13.28906 6.78125,20.98047 -0.6875,7.6875 -4.39063,14.59766 -10.41797,19.45312 -11.6836,9.40625 -29.35157,7.64844 -39.39453,-3.91796 -5.07813,-5.85547 -13.19922,-8.32813 -20.67969,-6.30469 l -13.30078,3.60156 c -51.375,13.89453 -105.65625,13.8125 -156.98828,-0.25391 l -11.757816,-3.21875 c -7.507813,-2.05859 -15.652344,0.40625 -20.75,6.28907 l -0.257813,0.29687 c -5.066406,5.84375 -12.105469,9.28125 -19.824219,9.69531 -0.523437,0.0274 -1.042968,0.0391 -1.558593,0.0391"
         id="path13" />
    </g>
    <path
       style="fill:#0f0c0c;fill-opacity:1;fill-rule:nonzero;stroke:none"
       d="M 285.26562,170.48047 H 48.945312 c -2.917968,0 -5.289062,-2.36719 -5.289062,-5.28125 0,-2.92188 2.371094,-5.28516 5.289062,-5.28516 H 285.26562 c 2.91797,0 5.28907,2.36328 5.28907,5.28516 0,2.91406 -2.3711,5.28125 -5.28907,5.28125"
       id="path17" />
    <path
       style="fill:#0f0c0c;fill-opacity:1;fill-rule:nonzero;stroke:none"
       d="m 232.16016,103.00391 c -2.17188,3.97656 -7.16797,5.4414 -11.14844,3.26562 -3.98047,-2.16797 -5.44531,-7.160155 -3.26953,-11.136718 2.17187,-3.976562 7.16406,-5.441406 11.14843,-3.269531 3.98047,2.175781 5.44532,7.160157 3.26954,11.140629"
       id="path19" />
    <path
       style="fill:#0f0c0c;fill-opacity:1;fill-rule:nonzero;stroke:none"
       d="m 268.10547,84.542969 c -2.17578,3.976562 -7.16797,5.441406 -11.14844,3.265625 -3.98437,-2.171875 -5.44922,-7.15625 -3.27344,-11.132813 2.17188,-3.976562 7.16797,-5.445312 11.14844,-3.269531 3.98438,2.171875 5.44922,7.15625 3.27344,11.136719"
       id="path21" />
    <path
       style="fill:#0f0c0c;fill-opacity:1;fill-rule:nonzero;stroke:none"
       d="m 228.28906,62.820312 c -2.17578,3.976563 -7.16797,5.4375 -11.14844,3.265626 -3.98437,-2.171876 -5.44921,-7.160157 -3.27343,-11.136719 2.17578,-3.976563 7.16797,-5.4375 11.14843,-3.269531 3.98438,2.171874 5.44922,7.164062 3.27344,11.140624"
       id="path23" />
    <path
       style="fill:#4c6323;fill-opacity:1;fill-rule:nonzero;stroke:none"
       d="m 204.10937,242.71875 c -12.41406,15.61328 -16.44531,33.06641 -12.625,47.44922 17.85938,-3.27735 35.88672,-13.57031 48.29688,-29.1875 12.41016,-15.60938 16.44531,-33.06641 12.62891,-47.45313 -17.86719,3.28516 -35.89063,13.57422 -48.30079,29.19141"
       id="path25" />
    <path
       style="fill:#0f0c0c;fill-opacity:1;fill-rule:nonzero;stroke:none"
       d="m 204.10937,242.71875 h 0.0117 z M 248.25,219.86719 c -15.50781,4.05859 -29.87109,13.39453 -39.99609,26.13672 -9.64063,12.12109 -14.08985,25.63671 -12.60938,37.83203 15.50391,-4.0586 29.86719,-13.39844 39.99219,-26.13672 9.63672,-12.1211 14.08594,-25.63672 12.61328,-37.83203 z m -56.76953,75.58593 c -2.35547,0 -4.48828,-1.57812 -5.11328,-3.92578 -4.42578,-16.66797 0.53125,-35.65625 13.59765,-52.09765 12.80469,-16.10157 31.57032,-27.4375 51.48438,-31.09766 2.71484,-0.49609 5.36328,1.17188 6.07031,3.84375 4.42969,16.66406 -0.52734,35.65234 -13.59766,52.09375 -12.80078,16.10156 -31.5664,27.44141 -51.48437,31.09375 -0.32031,0.0625 -0.64063,0.0898 -0.95703,0.0898"
       id="path27" />
    <path
       style="fill:#4c6323;fill-opacity:1;fill-rule:nonzero;stroke:none"
       d="m 176.08594,242.71875 c 12.41406,15.61328 16.44531,33.06641 12.625,47.44922 -17.85938,-3.27735 -35.88672,-13.57031 -48.29688,-29.1875 -12.41015,-15.60938 -16.44922,-33.06641 -12.6289,-47.45313 17.86718,3.28516 35.88671,13.57422 48.30078,29.19141"
       id="path29" />
    <path
       style="fill:#0f0c0c;fill-opacity:1;fill-rule:nonzero;stroke:none"
       d="m 131.94531,219.86719 c -1.47265,12.19531 2.97656,25.71093 12.61328,37.83203 10.125,12.73828 24.48828,22.07812 39.99219,26.13672 1.47656,-12.19532 -2.96875,-25.71094 -12.60937,-37.83203 -10.12891,-12.74219 -24.48829,-22.07813 -39.9961,-26.13672 z m 56.76953,75.58593 c -0.3164,0 -0.63672,-0.0273 -0.96093,-0.0898 -19.91797,-3.65234 -38.67969,-14.99219 -51.48438,-31.09375 -13.0664,-16.44141 -18.02344,-35.42969 -13.59375,-52.09375 0.70703,-2.67187 3.35547,-4.34375 6.07031,-3.84375 19.91407,3.66016 38.67969,14.99609 51.48438,31.09766 13.0664,16.4414 18.01953,35.42968 13.59375,52.09765 -0.625,2.34766 -2.75391,3.92578 -5.10938,3.92578"
       id="path31" />
    <path
       style="fill:#0f0c0c;fill-opacity:1;fill-rule:nonzero;stroke:none"
       d="m 190.09766,326.80859 c -2.92188,0 -5.28907,-2.36718 -5.28907,-5.28515 v -31.35547 c 0,-2.91797 2.36719,-5.28125 5.28907,-5.28125 2.91796,0 5.28906,2.36328 5.28906,5.28125 v 31.35547 c 0,2.91797 -2.3711,5.28515 -5.28906,5.28515"
       id="path33" />
  </g>
</svg>
