<?xml version="1.0" encoding="UTF-8" standalone="no"?>
<!-- Created with Inkscape (http://www.inkscape.org/) -->

<svg
   width="50.700268mm"
   height="121.51796mm"
   viewBox="0 0 50.700268 121.51796"
   version="1.1"
   id="svg395"
   inkscape:version="1.1 (c68e22c387, 2021-05-23)"
   sodipodi:docname="man_carrying_carrot.svg"
   xmlns:inkscape="http://www.inkscape.org/namespaces/inkscape"
   xmlns:sodipodi="http://sodipodi.sourceforge.net/DTD/sodipodi-0.dtd"
   xmlns="http://www.w3.org/2000/svg"
   xmlns:svg="http://www.w3.org/2000/svg">
  <sodipodi:namedview
     id="namedview397"
     pagecolor="#505050"
     bordercolor="#ffffff"
     borderopacity="1"
     inkscape:pageshadow="0"
     inkscape:pageopacity="0"
     inkscape:pagecheckerboard="1"
     inkscape:document-units="mm"
     showgrid="false"
     fit-margin-top="0"
     fit-margin-left="0"
     fit-margin-right="0"
     fit-margin-bottom="0"
     inkscape:zoom="0.77771465"
     inkscape:cx="-225.66117"
     inkscape:cy="383.81687"
     inkscape:window-width="1284"
     inkscape:window-height="1081"
     inkscape:window-x="3104"
     inkscape:window-y="170"
     inkscape:window-maximized="0"
     inkscape:current-layer="layer1" />
  <defs
     id="defs392">
    <clipPath
       xml:id="clip1"
       id="clip1">
      <path
         d="m 174,335 h 23 v 25.78906 h -23 z m 0,0"
         id="path399" />
    </clipPath>
    <clipPath
       xml:id="clip2"
       id="clip2">
      <path
         d="m 233,322 h 27.86328 v 32 H 233 Z m 0,0"
         id="path402" />
    </clipPath>
  </defs>
  <g
     inkscape:label="Layer 1"
     inkscape:groupmode="layer"
     id="layer1"
     transform="translate(-67.185949,-47.08638)">
    <g
       xml:id="surface1"
       id="surface1"
       transform="matrix(0.35277778,0,0,0.35277778,25.863583,41.539169)">
      <path
         style="fill:#8f3a2e;fill-opacity:1;fill-rule:nonzero;stroke:none"
         d="m 158.69141,223.45703 c 0,0 19.80468,11.19531 26.82031,12.85547 7.01172,1.66016 16.5039,1.24609 16.5039,1.24609 0,0 -4.53906,11.19532 -5.77734,11.19532 -1.23828,0 -15.67969,4.14843 -25.58203,-5.80469 -9.90234,-9.95313 -11.94531,-12.28906 -11.94531,-12.28906 z m 0,0"
         id="path407" />
      <path
         style="fill:#bfbf0c;fill-opacity:1;fill-rule:nonzero;stroke:none"
         d="m 198.89453,113.39844 c -16.96875,57.51953 -43.97266,101.95703 -47.19141,99.24218 -4.16406,-3.51171 -2.71093,-51.53515 14.25782,-109.05468 16.96484,-57.519534 31.28515,-77.632815 40.3789,-74.921878 9.09375,2.710938 9.52344,27.214844 -7.44531,84.734378 z m 0,0"
         id="path409" />
      <path
         style="fill:#c7d111;fill-opacity:1;fill-rule:nonzero;stroke:none"
         d="m 180.09375,100.45703 c -6.39844,59.64844 -25.01563,108.24219 -28.66797,106.15234 -4.72266,-2.70312 -11.88672,-50.20703 -5.48437,-109.855464 6.40234,-59.648437 16.89062,-82.019531 26.32421,-80.996094 9.42969,1.023438 14.23438,25.050782 7.82813,84.699218 z m 0,0"
         id="path411" />
      <path
         style="fill:#dcd91e;fill-opacity:1;fill-rule:nonzero;stroke:none"
         d="m 158.23047,101.55859 c 5.69531,59.71875 -2.79297,111.08594 -6.78906,109.78125 -5.16797,-1.6914 -21.71094,-46.76953 -27.40235,-106.49218 -5.6914,-59.718754 0.0937,-83.757816 9.53516,-84.664066 9.44531,-0.910156 18.96484,21.652344 24.65625,81.374996 z m 0,0"
         id="path413" />
      <path
         style="fill:#e36828;fill-opacity:1;fill-rule:nonzero;stroke:none"
         d="m 174.08984,269.32812 c -5.29687,49.37891 -21.98047,88.06641 -37.26172,86.41016 -15.27734,-1.65625 -23.36718,-43.03125 -18.07031,-92.40625 5.30078,-49.37891 19.47266,-60.64062 34.75,-58.98437 15.28125,1.65625 25.88281,15.60156 20.58203,64.98046 z m 0,0"
         id="path415" />
      <path
         style="fill:#c7d111;fill-opacity:1;fill-rule:nonzero;stroke:none"
         d="m 164.125,209.82031 -24.68359,-2.67578 1.28515,-11.97656 24.6836,2.67187 z m 0,0"
         id="path417" />
      <path
         style="fill:#f8b333;fill-opacity:1;fill-rule:nonzero;stroke:none"
         d="m 119.84375,254.60547 c -0.39453,2.76562 -0.75781,5.67187 -1.08594,8.72656 -0.11718,1.11328 -0.23047,2.22656 -0.33593,3.33203 l 16.24999,4.88281 z m 0,0"
         id="path419" />
      <path
         style="fill:#f8b333;fill-opacity:1;fill-rule:nonzero;stroke:none"
         d="m 129.53906,219.45703 c -1.44922,2.78125 -2.80468,6.00781 -4.05859,9.73438 l 17.0625,5.125 z m 0,0"
         id="path421" />
      <path
         style="fill:#f8b333;fill-opacity:1;fill-rule:nonzero;stroke:none"
         d="m 175.18359,256.10937 c 0.25,-4.47656 0.33203,-8.58984 0.26953,-12.36718 l -18.60546,13.76562 z m 0,0"
         id="path423" />
      <path
         style="fill:#8f3a2e;fill-opacity:1;fill-rule:nonzero;stroke:none"
         d="m 208.72656,232.3125 c 0,0 -8.27734,-9.67969 -10.41406,-11.72656 -2.13672,-2.04297 -5.26172,-4.77344 -8.94922,-3.21094 -3.68359,1.55859 -3.58203,5.74609 -3.23828,8.23047 0.33984,2.48437 2.33203,5.55078 2.33203,5.55078 l 2.85938,-0.63672 c 0,0 1.99218,5.50391 4.41406,5.5 2.42578,0 3.73047,-1.91016 3.73047,-1.91016 l 5.29297,4.2461 c 0,0 8.4375,-0.88281 3.97265,-6.04297 z m 0,0"
         id="path425" />
      <path
         style="fill:#000000;fill-opacity:1;fill-rule:nonzero;stroke:none"
         d="m 192.16797,222.76562 c 0,0 0,-2.54296 3.2539,-0.72656 3.25,1.81641 2.89063,5.08594 2.89063,5.08594 l 2.89062,-3.26953 c 0,0 -1.44531,-6.17578 -4.33593,-9.44531 -2.58594,-2.92188 -3.97657,-3.26954 -9.39844,-0.36329 -2.57031,1.37891 -3.25,8.35547 -3.25,8.35547 h 1.80469 c 0,0 1.80859,-3.63281 6.14453,0.36328 z m 0,0"
         id="path427" />
      <path
         style="fill:#000000;fill-opacity:1;fill-rule:nonzero;stroke:none"
         d="m 209.02734,285.25 c 0,0 -1.64843,5.39062 -5.77343,7.46484 -4.12891,2.07032 -21.45704,12.02344 -22.69532,32.76172 -1.23828,20.73438 5.36328,29.44141 5.36328,29.44141 l 5.77735,1.24609 c 0,0 2.88672,-4.5625 3.30078,-11.19922 0.41406,-6.63281 -0.82422,-17.83203 5.36328,-24.46484 6.1875,-6.63672 16.91797,-9.95313 20.63281,-16.17578 3.71094,-6.22266 -8.2539,10.78125 3.71094,22.39453 11.96484,11.61328 28.47266,14.51562 28.47266,14.51562 0,0 4.125,-2.48828 3.71093,-4.5625 -0.41015,-2.07421 -11.96484,-9.53906 -14.02734,-17.0039 -2.0625,-7.46485 -6.19141,-4.97656 -2.47656,-17.83203 3.71484,-12.85547 -0.82422,-20.32032 -0.82422,-20.32032 z m 0,0"
         id="path429" />
      <path
         style="fill:#8f3a2e;fill-opacity:1;fill-rule:nonzero;stroke:none"
         d="m 190.46094,256.21875 c 0,0 -9.07813,9.53906 -15.26953,12.02734 -6.1875,2.48828 -21.45313,3.73047 -21.45313,3.73047 0,0 -3.30078,-3.3164 -4.95312,-2.07422 -1.64844,1.2461 -4.125,3.73438 -1.64844,4.98047 2.47265,1.24219 10.72656,1.24219 11.96484,1.24219 1.23828,0 13.61328,4.97656 21.04297,2.07422 7.42578,-2.90235 20.63281,-17.83203 20.63281,-17.83203 z m 0,0"
         id="path431" />
      <path
         style="fill:#e3ba3a;fill-opacity:1;fill-rule:nonzero;stroke:none"
         d="m 209.85547,233.82422 c 0,0 -7.42969,0.83203 -10.31641,2.90234 -2.88672,2.07422 -11.96484,21.56641 -11.96484,21.56641 0,0 4.94922,6.21875 8.2539,7.46484 3.30079,1.24219 7.42579,-7.05078 7.42579,-7.05078 0,0 4.94921,12.44141 5.36328,19.49219 0.41015,7.05078 0.41015,7.05078 0.41015,7.05078 0,0 0,6.21875 21.45703,2.48828 8.98047,-1.5625 9.07813,-6.22266 9.07813,-6.22266 0,0 -5.25,-44 -29.70703,-47.6914 z m 0,0"
         id="path433" />
      <g
         clip-rule="nonzero"
         clip-path="url(#clip1)"
         id="g437">
        <path
           style="fill:#1e6b66;fill-opacity:1;fill-rule:nonzero;stroke:none"
           d="m 179.73047,335.57031 c 0,0 7.95703,1.08985 11.75781,1.08985 3.79688,0 4.52344,-0.91016 4.52344,-0.91016 0,0 -0.36328,8.91016 -1.62891,14.54297 -1.26562,5.63672 -1.6289,9.08984 -1.6289,9.08984 0,0 -15.5586,1.09375 -17.1836,0.72656 -1.6289,-0.36328 -0.72656,-1.63281 1.98828,-3.08984 2.71485,-1.45312 5.96875,-5.63672 5.96875,-5.63672 z m 0,0"
           id="path435" />
      </g>
      <g
         clip-rule="nonzero"
         clip-path="url(#clip2)"
         id="g441">
        <path
           style="fill:#1e6b66;fill-opacity:1;fill-rule:nonzero;stroke:none"
           d="m 233.99609,335.89844 c 0,0 5.50391,-5.87891 7.71094,-8.98438 2.21094,-3.10937 1.89453,-4.22656 1.89453,-4.22656 0,0 7.00391,5.47266 10.83203,9.77734 3.82813,4.3125 6.41797,6.61328 6.41797,6.61328 0,0 -8.15625,13.36329 -9.39453,14.48438 -1.24219,1.12109 -1.74609,-0.35938 -1.34766,-3.42578 0.39844,-3.0625 -1.09765,-8.15625 -1.09765,-8.15625 z m 0,0"
           id="path439" />
      </g>
      <path
         style="fill:#e36828;fill-opacity:1;fill-rule:nonzero;stroke:none"
         d="m 173.76172,222.84766 24.59765,-6.91016 c 0,0 -1.6289,-10.54297 -3.97656,-10.90625 -2.35156,-0.36328 -8.14062,0.90625 -9.04687,2.54297 -0.90235,1.63672 0,9.08984 0,9.08984 z m 0,0"
         id="path443" />
    </g>
  </g>
</svg>
