<?xml version="1.0" encoding="UTF-8" standalone="no"?>
<!-- Created with Inkscape (http://www.inkscape.org/) -->

<svg
   width="76.78009mm"
   height="129.3795mm"
   viewBox="0 0 76.78009 129.3795"
   version="1.1"
   id="svg5"
   inkscape:version="1.1 (c68e22c387, 2021-05-23)"
   sodipodi:docname="man_carrying_radish.svg"
   xmlns:inkscape="http://www.inkscape.org/namespaces/inkscape"
   xmlns:sodipodi="http://sodipodi.sourceforge.net/DTD/sodipodi-0.dtd"
   xmlns="http://www.w3.org/2000/svg"
   xmlns:svg="http://www.w3.org/2000/svg">
  <sodipodi:namedview
     id="namedview7"
     pagecolor="#505050"
     bordercolor="#ffffff"
     borderopacity="1"
     inkscape:pageshadow="0"
     inkscape:pageopacity="0"
     inkscape:pagecheckerboard="1"
     inkscape:document-units="mm"
     showgrid="false"
     fit-margin-top="0"
     fit-margin-left="0"
     fit-margin-right="0"
     fit-margin-bottom="0"
     inkscape:zoom="0.77771465"
     inkscape:cx="-138.86841"
     inkscape:cy="421.10561"
     inkscape:window-width="2025"
     inkscape:window-height="1081"
     inkscape:window-x="2964"
     inkscape:window-y="171"
     inkscape:window-maximized="0"
     inkscape:current-layer="surface1" />
  <defs
     id="defs2" />
  <g
     inkscape:label="Layer 1"
     inkscape:groupmode="layer"
     id="layer1"
     transform="translate(-44.297177,-36.936773)">
    <g
       xml:id="surface1"
       id="surface1"
       transform="matrix(0.35277778,0,0,0.35277778,13.122208,34.555198)">
      <g
         id="g369"
         transform="matrix(-1,0,0,1,394.38432,0)">
        <path
           style="fill:#a61e19;fill-opacity:1;fill-rule:nonzero;stroke:none"
           d="m 113.0625,215.88281 c 0,0 5.96094,7.46094 1.49219,12.6836 -4.46875,5.22265 -13.40625,8.20703 -19.36719,15.66796 -8.652344,10.83594 -8.980469,18.47657 -1.488281,24.61719 8.191411,6.71485 14.152341,8.20703 14.152341,8.20703 0,0 -14.964841,-11.41015 -10.425779,-21.63672 2.976559,-6.71484 9.679689,-11.9375 23.085939,-10.44531 13.40625,1.4961 26.8125,-8.94922 26.8125,-8.94922 z m 0,0"
           id="path58" />
        <path
           style="fill:#f5cf91;fill-opacity:1;fill-rule:nonzero;stroke:none"
           d="m 192.92969,247.15625 c 0,0 13.16406,-10.63672 18.68359,-20.42188 5.52344,-9.78515 5.52344,-13.1875 5.52344,-13.1875 l -5.94531,0.42579 -26.33204,26.80078 c 0,0 -0.85156,7.23047 8.07032,6.38281 z m 0,0"
           id="path60" />
        <path
           style="fill:#a61e19;fill-opacity:1;fill-rule:nonzero;stroke:none"
           d="m 167.76953,192.58203 45.45703,8.52344 C 212.85547,191.97266 210,182.55469 204.89062,173.8125 l -21.52734,1.64062 15.625,-10.18359 c -3.72656,-4.61719 -8.14453,-8.91797 -13.21484,-12.73047 C 171.75,141.99609 155.5,137.29687 140.80859,138.28516 l 9.89063,22.92187 -23.02344,-20.35937 c -8.24609,2.78515 -15.45703,7.71875 -20.73828,14.76953 -16.496094,22.02734 -7.949219,56.35547 19.09375,76.68359 27.03906,20.32422 62.33594,18.94531 78.83203,-3.07812 3.07031,-4.09375 5.26953,-8.61329 6.64844,-13.39063 z m 0,0"
           id="path62" />
        <path
           style="fill:#97b514;fill-opacity:1;fill-rule:nonzero;stroke:none"
           d="m 176.82422,145.05859 c 0,0 26.34765,-26.13671 14.0039,-37.67187 -12.34375,-11.535158 -51.67968,-13.238282 -66.98046,-12.687501 -15.30469,0.546875 -22.51953,-30.480469 -5.05469,-42.960938 17.47265,-12.476562 50.45703,-5.003906 65.61328,10.90625 15.15625,15.910157 23.31641,44.097659 15.80859,59.542969 -7.5039,15.44141 -16.89453,27.48047 -16.89453,27.48047 z m 0,0"
           id="path64" />
        <path
           style="fill:#94a817;fill-opacity:1;fill-rule:nonzero;stroke:none"
           d="m 193.21094,158.4375 c 0,0 13.68359,-27.66406 31.01562,-26.44922 17.32813,1.21094 34.44531,19.85156 44.04688,31.10156 9.60156,11.2461 39.16406,-3.97656 37.6875,-24.59765 -1.47657,-20.61719 -29.10157,-39.183596 -51.78125,-39.531252 -22.67578,-0.347657 -30.50782,14.066402 -48.66797,33.382812 -11.78906,12.54297 -19.54297,22.40234 -19.54297,22.40234 z m 0,0"
           id="path66" />
        <path
           style="fill:#97b514;fill-opacity:1;fill-rule:nonzero;stroke:none"
           d="m 183.32031,149.66406 c 0,0 30.3086,-38.0039 29.29297,-68.644529 -1.01953,-30.644531 -10.12109,-59.121093 8.22266,-70.0625 18.33984,-10.941406 42.53906,1.066407 49.49218,17.628907 6.95704,16.5625 4.8711,24.265624 -12.79296,42.929687 -17.66797,18.65625 -29.60157,27.203125 -41.64454,40.816405 -12.04296,13.61719 -29.92578,42.41406 -29.92578,42.41406 z m 0,0"
           id="path68" />
        <path
           style="fill:#97b514;fill-opacity:1;fill-rule:nonzero;stroke:none"
           d="m 195.19922,165.80859 -24.77735,-18.625 6.91407,-9.22656 24.77734,18.62109 z m 0,0"
           id="path70" />
        <path
           style="fill:#eb6861;fill-opacity:1;fill-rule:nonzero;stroke:none"
           d="m 127.61719,359.92969 c -2.41406,3.28906 -3.91797,5.49218 -3.91797,5.49218 0,0 8.67578,9.57422 11.51953,7.8711 2.85156,-1.69922 -2.50391,-4.04297 -2.50391,-7.44922 0,-0.6875 0.14453,-1.39453 0.42188,-2.10938 -2.02735,-1 -3.89063,-2.28906 -5.51953,-3.80468 z m 0,0"
           id="path72" />
        <path
           style="fill:#1e6b66;fill-opacity:1;fill-rule:nonzero;stroke:none"
           d="m 201.69141,312.86719 c -9.48829,-7.65625 -25.69532,-16.41016 -25.69532,-16.41016 l -22.15625,12.67969 c 0,0 3.55078,11.1914 3.55078,21.40234 0,10.21094 -1.89843,11.91016 -4.74609,12.33594 -2.84766,0.42578 -10.4375,-1.27734 -17.08203,6.80469 -3.08203,3.75 -5.85547,7.40625 -7.94531,10.25 1.6289,1.51562 3.49218,2.80468 5.51953,3.80468 1.08984,-2.80859 4.34375,-5.72265 10.01953,-8.09765 7.11719,-2.97656 15.18359,-2.55078 23.25,-7.23047 8.06641,-4.67969 10.44141,-28.08203 10.44141,-28.08203 0,0 13.75781,5.95703 17.55468,11.0625 3.79688,5.10547 0,10.21094 5.21875,18.71875 2.55078,4.15625 4.41797,8.41015 5.66407,11.67969 1.92578,-0.0586 3.875,-0.11329 5.8164,-0.20704 -1.27734,-4.1914 -1.72656,-12.33593 -2.46484,-21.25781 -0.94922,-11.48437 2.54297,-19.79687 -6.94531,-27.45312 z m 0,0"
           id="path74" />
        <path
           style="fill:#eb6861;fill-opacity:1;fill-rule:nonzero;stroke:none"
           d="m 207.21094,367.55078 c 0,0 7.11718,1.69922 9.01562,0.85156 1.89844,-0.85156 -1.42187,-2.1289 -3.79297,-4.2539 -0.53125,-0.47657 -0.96484,-1.35938 -1.33593,-2.56641 -1.94141,0.0937 -3.88672,0.14453 -5.8125,0.20703 1.30468,3.41797 1.92578,5.76172 1.92578,5.76172 z m 0,0"
           id="path76" />
        <path
           style="fill:#f5cf91;fill-opacity:1;fill-rule:nonzero;stroke:none"
           d="m 144.08594,252.68359 c 0,0 -8.06641,-11.48437 -9.34375,-22.12109 -1.27344,-10.63672 5.94922,-26.80078 5.94922,-26.80078 0,0 2.54687,-8.51172 5.51953,-8.51172 2.97265,0 5.09765,0.42578 3.39843,2.98047 -1.69921,2.55078 -2.55078,4.67969 -2.55078,4.67969 0,0 4.2461,-1.27735 4.2461,0.42578 0,1.69922 -2.54688,1.69922 -3.82032,2.97656 -1.27343,1.27734 -1.27343,1.27734 -1.27343,1.27734 0,0 -7.64453,6.80469 -2.55078,16.16407 5.09765,9.36328 11.04296,17.86718 11.46875,20.84765 0.42578,2.97656 -11.04297,8.08203 -11.04297,8.08203 z m 0,0"
           id="path78" />
        <path
           style="fill:#000000;fill-opacity:1;fill-rule:nonzero;stroke:none"
           d="m 154.28125,240.34766 c 0,0 0.11719,3.32421 -4.35156,7.24218 -2.85547,2.50391 -8.81641,1.69141 -8.81641,1.69141 0,0 3.82422,5.53125 4.67188,8.93359 0.85156,3.40625 -3.39844,9.35938 -1.27344,26.80078 2.12109,17.44532 9.76562,25.95313 9.76562,25.95313 0,0 10.19532,-0.42578 15.71485,-4.67969 5.52343,-4.2539 7.21875,-9.78515 7.21875,-9.78515 0,0 -9.34375,-5.95704 -5.94532,-15.73829 3.39844,-9.78515 9.25782,-16.36718 11.80469,-18.0664 2.55078,-1.70313 17.875,-17.16016 17.875,-17.16016 0,0 -6.0625,-9.16406 -8.1914,-8.76562 -2.98047,0.55859 -7.89844,4 -7.89844,4 l -15.71094,9.36328 z m 0,0"
           id="path80" />
        <path
           style="fill:#f5cf91;fill-opacity:1;fill-rule:nonzero;stroke:none"
           d="m 170.73437,248.42969 c 0,0 9.42579,-4.52735 12.36329,-5.70703 2.93359,-1.17969 9.78125,-4.44141 12.82812,-1.42188 3.05469,3.01563 0.0117,6.57031 -1.30859,8.90234 -1.32422,2.33204 -3.23828,5.15235 -3.23828,5.15235 l -2.59766,-1.76953 c 0,0 -4.16016,4.67187 -6.57422,3.70703 -2.41406,-0.96875 -2.95312,-3.38672 -2.95312,-3.38672 l -6.95313,2.10937 c 0,-0.004 -8.05469,-4.23828 -1.56641,-7.58593 z m 0,0"
           id="path82" />
        <path
           style="fill:#4f354a;fill-opacity:1;fill-rule:nonzero;stroke:none"
           d="m 181.00391,243.04297 3.76562,2.6875 c 0,0 3.26563,-2.52344 4.51563,-2.21485 1.2539,0.30469 2.04687,2.48829 2.04687,2.48829 0,0 6.72266,0.53125 6.55078,-1.50391 -0.16797,-2.03125 -2.42187,-4.57422 -5.60156,-5.125 -3.17969,-0.55469 -9.72656,1.83203 -11.27734,3.66797 z m 0,0"
           id="path84" />
        <path
           style="fill:#1e6b66;fill-opacity:1;fill-rule:nonzero;stroke:none"
           d="m 162.33594,245.37109 -5.86328,20.14453 c 0,0 -2.51172,8.39063 -2.79297,19.58204 -0.27735,11.1875 2.79297,27.13671 2.79297,27.13671 0,0 10.61328,-1.96093 15.08203,-4.75781 4.46875,-2.79687 6.42187,-7.55469 6.42187,-7.55469 l -0.83594,-27.6914 5.86329,-13.70703 -1.95704,-1.67969 -7.53906,13.14844 -12.84375,-1.95703 c 0,0 -0.28125,-4.19922 2.51172,-11.46875 2.79297,-7.27735 3.63281,-8.67579 3.63281,-8.67579 z m 0,0"
           id="path86" />
      </g>
    </g>
  </g>
</svg>
