<?xml version="1.0" encoding="UTF-8" standalone="no"?>
<svg
   width="359.89502pt"
   zoomAndPan="magnify"
   viewBox="0 0 359.89502 125.33357"
   height="125.33357pt"
   preserveAspectRatio="xMidYMid meet"
   version="1.2"
   id="svg14"
   sodipodi:docname="speech_bubble.svg"
   inkscape:version="1.1 (c68e22c387, 2021-05-23)"
   xmlns:inkscape="http://www.inkscape.org/namespaces/inkscape"
   xmlns:sodipodi="http://sodipodi.sourceforge.net/DTD/sodipodi-0.dtd"
   xmlns="http://www.w3.org/2000/svg"
   xmlns:svg="http://www.w3.org/2000/svg">
  <sodipodi:namedview
     id="namedview16"
     pagecolor="#ffffff"
     bordercolor="#666666"
     borderopacity="1.0"
     inkscape:pageshadow="2"
     inkscape:pageopacity="0.0"
     inkscape:pagecheckerboard="true"
     inkscape:document-units="pt"
     showgrid="false"
     fit-margin-top="0"
     fit-margin-left="0"
     fit-margin-right="0"
     fit-margin-bottom="0"
     inkscape:zoom="1.746"
     inkscape:cx="240.26346"
     inkscape:cy="46.96449"
     inkscape:window-width="2154"
     inkscape:window-height="1086"
     inkscape:window-x="2686"
     inkscape:window-y="215"
     inkscape:window-maximized="0"
     inkscape:current-layer="g11" />
  <defs
     id="defs5">
    <clipPath
       xml:id="clip1"
       id="clip1">
      <path
         d="M 7.101562,96.820312 H 367.85156 V 242.32031 H 7.101562 Z m 0,0"
         id="path2" />
    </clipPath>
  </defs>
  <g
     xml:id="surface1"
     id="surface1"
     transform="matrix(1,0,0,1.2432146,-7.4757672,-175.8791)">
    <g
       clip-rule="nonzero"
       clip-path="url(#clip1)"
       id="g11">
      <path
         style="fill:#5b7e1b;fill-opacity:1;fill-rule:nonzero;stroke:none;stroke-width:0.832542"
         d="m 55.338711,142.84043 c 74.304689,-0.71479 158.539059,-1.12363 245.093749,-1.32669 5.41015,-0.0135 10.82812,-0.0244 16.25781,-0.0379 1.32813,-0.0244 2.78125,0.0541 4.17969,0.0948 l 2.11719,0.0704 2.09765,0.2166 c 1.39844,0.15704 2.8125,0.2518 4.17578,0.53338 l 2.0625,0.36552 c 0.6836,0.12184 1.375,0.23014 2.03125,0.41696 10.83594,2.39345 20.25782,7.5919 26.36719,14.24971 3.04297,3.33297 5.33984,7.02603 6.51172,10.90321 1.19922,3.86635 1.44531,7.86537 0.76172,11.79128 -0.23438,0.97471 -0.375,1.96296 -0.69531,2.92413 l -1.0625,2.87539 -1.45704,2.78875 c -0.21875,0.47111 -0.57031,0.90432 -0.86718,1.35377 l -0.92188,1.33752 c -2.60547,3.51165 -6.07422,6.70654 -10.21094,9.41136 -4.13671,2.69128 -8.90625,4.94394 -14.1289,6.48181 -5.21094,1.55684 -10.80078,2.47469 -16.42969,2.73461 l -2.11328,0.0758 c -0.71094,0.0271 -1.41016,0.046 -2.07422,0.0352 h -4.05078 c -2.69531,0 -5.39063,-0.003 -8.08203,-0.003 l -2.67969,-0.003 -0.004,0.003 v 0.003 c 0,-0.006 -0.008,0.0135 0.004,-0.008 l -0.0781,0.15974 c -0.21875,0.45758 -0.42969,0.91786 -0.66797,1.37002 -0.92578,1.81946 -2.02344,3.58747 -3.26562,5.30675 -4.94141,6.89877 -12.60547,12.77952 -21.6875,17.00056 -4.55079,2.10645 -9.42579,3.86093 -14.55079,5.11993 l -1.92188,0.47111 -1.9492,0.40612 -0.97657,0.20037 c -0.10937,0.0298 -0.4414,0.0785 -0.72657,0.12454 l -0.85936,0.13267 -3.44142,0.53609 c -2.27733,0.29512 -4.41797,0.48194 -6.71874,0.72562 -2.25,0.2166 -4.91406,0.49277 -6.35547,0.60378 l 5.32813,-2.5532 c 0.91406,-0.44133 1.90625,-0.90161 2.7539,-1.3294 l 2.27735,-1.21568 c 0.74218,-0.40613 1.54686,-0.81496 2.23436,-1.21297 0.33594,-0.19224 0.65625,-0.40342 0.96875,-0.61461 l 0.46484,-0.31136 c 0.625,-0.3953 1.20313,-0.82309 1.78125,-1.25359 2.30469,-1.71115 4.34766,-3.59018 6.08594,-5.58833 3.48047,-3.9936 5.73047,-8.47456 6.52344,-13.03945 0.19141,-1.13987 0.29297,-2.28786 0.30859,-3.43586 l -0.008,-0.86098 -0.0273,-0.71479 -0.008,-0.12996 c -0.004,-0.0162 0.004,-0.0406 -0.0117,-0.046 l -0.0664,-0.003 c -3.04297,-0.006 -6.07031,-0.0135 -9.08594,-0.0189 -6.8125,-0.0135 -13.57422,-0.0298 -20.27734,-0.0433 -26.82031,-0.0677 -52.75,-0.13809 -77.48828,-0.20036 -24.74219,-0.0812 -48.30078,-0.15974 -70.378909,-0.23285 -11.03906,-0.0433 -21.71094,-0.0812 -31.97265,-0.12183 -1.28906,-0.0162 -2.54297,0.0189 -3.84766,-0.0406 -1.29297,-0.0487 -2.57813,-0.10018 -3.86327,-0.14892 -2.53125,-0.25721 -5.06642,-0.46028 -7.47657,-0.972 -1.21485,-0.22201 -2.42968,-0.42238 -3.58204,-0.7554 -1.15625,-0.30866 -2.33202,-0.5767 -3.45312,-0.92327 -1.10156,-0.37364 -2.19922,-0.74457 -3.28906,-1.1155 -0.5586,-0.17057 -1.0586,-0.40613 -1.57032,-0.62273 l -1.53906,-0.65522 c -4.01562,-1.80051 -7.66406,-3.89342 -10.58594,-6.32478 -0.37889,-0.29783 -0.77343,-0.58212 -1.125,-0.88807 l -1.00389,-0.94492 -0.99611,-0.93681 c -0.32812,-0.31407 -0.67968,-0.61461 -0.94531,-0.95576 -0.57422,-0.65793 -1.13672,-1.31586 -1.69531,-1.96566 -0.14063,-0.16516 -0.28906,-0.32491 -0.41797,-0.49006 l -0.34766,-0.51173 c -0.23437,-0.34115 -0.46484,-0.67959 -0.69531,-1.01803 -3.76953,-5.40693 -4.89844,-11.18208 -4.40625,-16.41573 0.50781,-5.2526 2.71485,-10.03951 5.9375,-13.94376 3.19922,-3.92321 7.19922,-7.0504 11.31641,-9.387 4.13672,-2.33659 8.33984,-3.89342 12.07812,-5.036 0.96485,-0.23555 1.89063,-0.46569 2.77735,-0.68771 0.44531,-0.1083 0.88281,-0.2166 1.30468,-0.3222 0.42579,-0.1083 0.86329,-0.15974 1.28125,-0.23826 0.83986,-0.1462 1.63673,-0.28428 2.39844,-0.41425 0.375,-0.065 0.7461,-0.12996 1.10548,-0.18952 0.36719,-0.0379 0.72266,-0.0731 1.06641,-0.10831 1.38672,-0.13808 2.60156,-0.25992 3.65625,-0.36551 1.05859,-0.0298 1.94922,-0.0569 2.66406,-0.0785 1.43359,-0.0433 2.16797,-0.0623 2.16797,-0.0623 0,0 -0.73047,0.0298 -2.16406,0.0866 -0.71485,0.0298 -1.60157,0.065 -2.66016,0.1083 -1.04688,0.11913 -2.26172,0.2518 -3.63672,0.40613 -0.34767,0.0379 -0.69923,0.0758 -1.0625,0.11913 -0.35938,0.065 -0.72656,0.13267 -1.10156,0.20306 -0.75392,0.13538 -1.54298,0.2843 -2.375,0.43862 -0.41017,0.0812 -0.84375,0.13808 -1.26953,0.2491 -0.41797,0.1083 -0.84766,0.21931 -1.28907,0.33573 -0.8789,0.22743 -1.79296,0.46569 -2.74609,0.71478 -3.69531,1.17507 -7.82422,2.76168 -11.86719,5.11452 -4.01953,2.35555 -7.90625,5.48004 -10.97265,9.37075 -3.09375,3.87177 -5.16016,8.59098 -5.55469,13.73258 -0.38281,5.12534 0.83203,10.74346 4.58984,15.96086 0.23047,0.32491 0.46094,0.65252 0.69532,0.98013 l 0.34375,0.49277 c 0.1289,0.16245 0.27343,0.31678 0.41406,0.47382 0.55469,0.62544 1.11719,1.25899 1.67969,1.89526 0.26171,0.32491 0.60546,0.61461 0.92968,0.91515 l 0.98438,0.90161 0.99219,0.90431 c 0.34375,0.29783 0.73437,0.56587 1.10156,0.85287 2.87109,2.32848 6.4375,4.31851 10.33984,6.02154 l 1.49219,0.62273 c 0.5,0.20578 0.98437,0.42779 1.52344,0.58754 1.05859,0.34926 2.12109,0.69854 3.1875,1.04781 1.08203,0.3249 2.22656,0.57128 3.33984,0.8637 1.10937,0.31137 2.28516,0.49006 3.45312,0.69313 2.32032,0.47652 4.76171,0.64709 7.19532,0.87723 1.23047,0.0379 2.46875,0.0758 3.71093,0.11643 1.23438,0.046 2.53515,0.003 3.8125,0.008 10.26171,-0.0352 20.93359,-0.0785 31.97265,-0.11913 22.078129,-0.0731 45.636719,-0.14892 70.378919,-0.23285 24.73828,-0.065 50.66797,-0.12996 77.48828,-0.20036 6.70312,-0.0135 13.46483,-0.0271 20.27733,-0.0433 3.79297,-0.003 7.59766,-0.0108 11.41797,-0.0162 l 1.20313,0.0108 c 0.13671,-0.0271 0.125,0.0568 0.13281,0.13267 l 0.0195,0.20577 0.0469,0.41966 c 0.0586,0.55505 0.12891,1.13176 0.16407,1.64348 l 0.0391,0.6119 0.0234,0.46569 0.0117,0.93139 c -0.004,1.24275 -0.10547,2.48822 -0.30079,3.72826 -0.82812,4.97373 -3.23046,9.82562 -6.97265,14.15766 -1.86328,2.16602 -4.0586,4.2102 -6.54688,6.07298 -0.62109,0.4657 -1.25,0.93139 -1.92187,1.3646 l -0.5586,0.37093 c -0.0664,0.046 -0.13281,0.0839 -0.19921,0.11642 -0.0977,0.0406 0.0469,0.0108 0.0977,0.006 l 0.23438,-0.0379 0.30468,-0.0541 0.0742,-0.0135 0.21485,-0.0433 0.91407,-0.19494 1.82031,-0.38447 1.80469,-0.44404 c 4.79686,-1.19131 9.36328,-2.84831 13.625,-4.83022 8.5,-3.98548 15.61328,-9.46281 20.21875,-15.92026 1.15625,-1.60827 2.18359,-3.26798 3.04687,-4.97372 0.22266,-0.42238 0.41797,-0.85017 0.62109,-1.27796 l 0.23047,-0.51713 0.29297,-0.66606 0.29297,-0.67146 0.14453,-0.33303 c 0.0156,-0.0649 0.14844,-0.0162 0.21875,-0.0352 h 5.64453 c 2.69141,-0.003 5.38672,-0.003 8.08203,-0.003 h 4.05109 c 0.6875,0.008 1.33594,-0.0108 1.97266,-0.0406 l 1.93359,-0.0677 c 5.14453,-0.24367 10.24219,-1.07759 15,-2.49634 4.76953,-1.4025 9.12109,-3.46292 12.91016,-5.91865 3.77734,-2.47197 6.95312,-5.38798 9.33984,-8.59369 l 0.84766,-1.22109 c 0.26953,-0.41155 0.59765,-0.80143 0.79297,-1.23464 l 1.33984,-2.54507 0.97656,-2.62359 c 0.29297,-0.87995 0.41406,-1.78426 0.64063,-2.67504 0.6289,-3.58747 0.41797,-7.25075 -0.66407,-10.78949 -1.05078,-3.54957 -3.14062,-6.93127 -5.91406,-9.98806 -5.5664,-6.11089 -14.17578,-10.91405 -24.10547,-13.14505 -0.60156,-0.17598 -1.23828,-0.27346 -1.86718,-0.38717 l -1.89063,-0.34119 c -1.24609,-0.27075 -2.55078,-0.35469 -3.83203,-0.5036 l -1.92578,-0.21119 -1.95313,-0.0704 c -1.30859,-0.0406 -2.5664,-0.12454 -3.94531,-0.10559 -5.42969,-0.0135 -10.84766,-0.0244 -16.25781,-0.0352 -86.55472,-0.20577 -170.78909,-0.61461 -245.093779,-1.32669"
         id="path9" />
    </g>
  </g>
</svg>
