<?xml version="1.0" encoding="UTF-8" standalone="no"?>
<!-- Created with Inkscape (http://www.inkscape.org/) -->

<svg
   width="124.39757mm"
   height="124.01376mm"
   viewBox="0 0 124.39757 124.01376"
   version="1.1"
   id="svg584"
   inkscape:version="1.1 (c68e22c387, 2021-05-23)"
   sodipodi:docname="woman_carrying_pepper.svg"
   xmlns:inkscape="http://www.inkscape.org/namespaces/inkscape"
   xmlns:sodipodi="http://sodipodi.sourceforge.net/DTD/sodipodi-0.dtd"
   xmlns="http://www.w3.org/2000/svg"
   xmlns:svg="http://www.w3.org/2000/svg">
  <sodipodi:namedview
     id="namedview586"
     pagecolor="#505050"
     bordercolor="#ffffff"
     borderopacity="1"
     inkscape:pageshadow="0"
     inkscape:pageopacity="0"
     inkscape:pagecheckerboard="1"
     inkscape:document-units="mm"
     showgrid="false"
     fit-margin-top="0"
     fit-margin-left="0"
     fit-margin-right="0"
     fit-margin-bottom="0"
     inkscape:zoom="0.77771465"
     inkscape:cx="-149.79787"
     inkscape:cy="432.67798"
     inkscape:window-width="1284"
     inkscape:window-height="1081"
     inkscape:window-x="3356"
     inkscape:window-y="206"
     inkscape:window-maximized="0"
     inkscape:current-layer="layer1" />
  <defs
     id="defs581">
    <clipPath
       xml:id="clip1"
       id="clip1">
      <path
         d="m 236,278 h 66 v 85.84375 h -66 z m 0,0"
         id="path588" />
    </clipPath>
  </defs>
  <g
     inkscape:label="Layer 1"
     inkscape:groupmode="layer"
     id="layer1"
     transform="translate(-47.0074,-33.931268)">
    <g
       xml:id="surface1"
       id="surface1"
       transform="matrix(0.35277778,0,0,0.35277778,43.273002,29.789497)">
      <path
         style="fill:#f5cf91;fill-opacity:1;fill-rule:nonzero;stroke:none"
         d="m 264.70312,84.203125 c 0,0 -15.46484,10.296875 -45.10156,23.171875 -29.63672,12.87109 -39.94922,15.44531 -39.94922,15.44531 l 10.73828,1.28907 36.08204,-3.00391 c 0,0 21.47656,-11.15625 35.64843,-15.01953 14.17969,-3.86328 14.17969,-19.308596 2.58203,-21.882815 z m 0,0"
         id="path593" />
      <path
         style="fill:#000000;fill-opacity:1;fill-rule:nonzero;stroke:none"
         d="m 296.91406,68.328125 c 0,0 -3.43359,-0.859375 -13.74609,5.148437 -10.30469,6.007813 -22.33594,13.730469 -22.33594,13.730469 0,0 7.73438,6.867188 10.3125,7.722657 2.57422,0.859374 11.16797,1.714843 11.16797,1.714843 0,0 36.94141,-17.160156 14.60156,-28.316406 z m 0,0"
         id="path595" />
      <path
         style="fill:#f5cf91;fill-opacity:1;fill-rule:nonzero;stroke:none"
         d="m 330.85156,92.355469 c 0,0 4.29688,-4.71875 -11.59765,-16.304688 -8.09375,-5.898437 -2.14844,-27.460937 -2.14844,-27.460937 0,0 3.86719,-32.609375 -12.46094,-33.46875 -16.32031,-0.859375 -17.17969,8.582031 -18.89844,15.449218 -1.71875,6.863282 -1.71875,12.011719 -1.71875,12.011719 l 5.15625,2.574219 c 0,0 -4.29687,8.582031 2.57813,10.296875 6.87109,1.71875 10.30859,0 10.30859,0 0,0 -0.85937,9.4375 -5.15625,12.875 -4.29687,3.429687 -8.58984,10.296875 -8.58984,10.296875 0,0 31.35937,23.17188 42.52734,13.730469 z m 0,0"
         id="path597" />
      <path
         style="fill:#f5cf91;fill-opacity:1;fill-rule:nonzero;stroke:none"
         d="m 198.71875,271.70312 c 0,0 -5.69922,23.21485 -3.64063,39.39063 2.0625,16.17578 2.40235,25.64844 2.40235,25.64844 0,0 -10.84375,10.03515 -14.14453,11.3164 -3.30078,1.28516 4.58593,2.01172 13,0.0781 8.41015,-1.9375 11.49218,-4.92578 11.49218,-4.92578 l -2.40234,-7.13672 c 0,0 4.91406,-13.94141 9.03516,-29.17188 4.12109,-15.23047 3.13281,-29.8125 3.13281,-29.8125 z m 0,0"
         id="path599" />
      <g
         clip-rule="nonzero"
         clip-path="url(#clip1)"
         id="g603">
        <path
           style="fill:#f5cf91;fill-opacity:1;fill-rule:nonzero;stroke:none"
           d="m 236.78125,278.14844 c 0,0 23.39453,28.44531 38.22656,46.76953 7.625,9.41797 9.52735,6.48047 14.17578,16.30469 1.69141,3.5664 -1.53906,17.72656 -4.10547,18.82421 -5.74609,2.46094 -2.29296,3.70704 2.81641,3.0586 5.11328,-0.65235 8.78906,-7.13281 8.78906,-7.13281 0,0 7.83985,-7.96485 3.23828,-16.89454 -4.60156,-8.93359 -13.83984,-15.23046 -16.32031,-27.89062 -2.48437,-12.66016 -20.50781,-14.95703 -20.50781,-14.95703 z m 0,0"
           id="path601" />
      </g>
      <path
         style="fill:#000000;fill-opacity:1;fill-rule:nonzero;stroke:none"
         d="m 330.42187,86.347656 c 0,0 6.01172,8.582032 8.58594,23.171874 2.58203,14.58985 3.4375,33.46875 3.4375,33.46875 0,0 -5.15234,-0.85937 -12.88281,-1.71875 -7.73047,-0.85547 -12.02734,-2.57031 -12.02734,-2.57031 0,0 1.71484,-28.32031 -3.4375,-24.03125 -5.15235,4.28906 -17.1836,24.88672 -17.1836,24.88672 l -5.15234,20.59765 -32.64453,-16.30468 c 0,0 6.875,-18.02344 6.01172,-24.03125 -0.85547,-6.00782 -15.17579,-19.5 0,-25.746098 14.60546,-6.007812 23.19531,-18.019531 23.19531,-18.019531 0,0 28.34765,10.296875 42.09765,10.296875 z m 0,0"
         id="path605" />
      <path
         style="fill:#e36828;fill-opacity:1;fill-rule:nonzero;stroke:none"
         d="m 290.90625,20.699219 c 0,0 9.01953,0 12.88281,7.292969 3.86719,7.296874 3.86719,7.296874 3.86719,7.296874 0,0 3.86719,-4.292968 4.29687,0.425782 0.42969,4.71875 -0.85937,12.875 -0.85937,12.875 0,0 0.24609,1.257812 4.54297,5.976562 4.29687,4.71875 18.48047,5.027344 24.67187,-5.28125 6.44532,-10.726562 -4.51562,-12.246094 -8.8125,-12.675781 -4.29687,-0.429687 -13.10156,4.253906 -13.10156,4.253906 0,0 3.00781,-15.878906 -2.14844,-20.597656 -5.14843,-4.714844 -12.45312,-9.4375 -18.89843,-6.863281 -6.44141,2.574218 -8.58985,6.007812 -8.58985,6.007812 0,0 -4.29687,-1.289062 -5.58594,1.289063 -1.28515,2.574219 -1.28906,6.003906 -1.28906,6.003906 0,0 6.875,-6.859375 9.02344,-6.003906 z m 0,0"
         id="path607" />
      <path
         style="fill:#000000;fill-opacity:1;fill-rule:nonzero;stroke:none"
         d="m 207.25,340.77734 c 0,0 -5.14844,3.86328 -9.44922,6.00782 -4.29297,2.14453 -4.29297,2.14453 -4.29297,2.14453 l -6.44531,-3.86328 c 0,0 -5.58594,4.72265 -6.44141,6.00781 -0.85937,1.28906 -1.72265,3.43359 2.57422,3.0039 4.29688,-0.42968 14.17578,-3 19.33203,-4.71875 5.15235,-1.71875 7.30078,-3.0039 7.30078,-3.0039 z m 0,0"
         id="path609" />
      <path
         style="fill:#000000;fill-opacity:1;fill-rule:nonzero;stroke:none"
         d="m 299.92187,340.36328 c 0,0 -3.00781,9.01172 -4.29687,12.01563 -1.28516,3.0039 -1.28516,3.0039 -1.28516,3.0039 l -7.30468,-1.28906 c 0,0 1.71875,1.28906 -1.28907,3.86328 -3.00781,2.57422 -6.01172,3.43359 -3.4375,4.29297 2.57813,0.85547 4.72657,1.28906 8.59375,-0.42969 3.86719,-1.71875 3.86328,-0.42969 7.30078,-6.00781 3.4375,-5.57813 7.30079,-12.01172 7.30079,-12.01172 0,0 -6.44141,-8.15625 -5.58204,-3.4375 z m 0,0"
         id="path611" />
      <path
         style="fill:#94a817;fill-opacity:1;fill-rule:nonzero;stroke:none"
         d="m 296.24609,14.425781 14.84766,34.164063 c 0,0 5.94922,-7.050782 8.76953,-7.753906 2.82031,-0.707032 25.02734,-2.816407 25.02734,-2.816407 0,0 -26.08593,-20.773437 -33.48437,-23.945312 -7.40234,-3.167969 -11.98828,-3.167969 -15.16016,0.351562 z m 0,0"
         id="path613" />
      <path
         style="fill:#94a817;fill-opacity:1;fill-rule:nonzero;stroke:none"
         d="m 311.40625,49.992188 c 0,0 1.05859,12.320312 6.34375,15.140624 5.28906,2.816407 7.40234,4.574219 7.40234,4.574219 0,0 -2.11718,-17.605469 -13.74609,-19.714843 z m 0,0"
         id="path615" />
      <path
         style="fill:#94a817;fill-opacity:1;fill-rule:nonzero;stroke:none"
         d="m 310.69922,49.285156 c 0,0 7.40234,-1.757812 13.03906,1.761719 5.64063,3.519531 8.46094,7.746094 8.46094,7.746094 0,0 -13.7461,-1.054688 -21.5,-9.507813 z m 0,0"
         id="path617" />
      <path
         style="fill:#c7d111;fill-opacity:1;fill-rule:nonzero;stroke:none"
         d="M 67.125,101.14453 C 57.507812,77.261719 55.414062,63.273438 49.371094,61.695312 43.332031,60.117188 40.226562,67.21875 28.820312,71.753906 17.417969,76.289062 0.00390625,76.09375 19.085938,97.101562 38.171875,118.10938 52.699219,140.30078 70.71875,154.50391 c 18.023438,14.19921 27.453125,17.25781 27.453125,17.25781 l 9.769535,-28.50391 c 0,0 -35.652348,-29.29297 -40.81641,-42.11328 z m 0,0"
         id="path619" />
      <path
         style="fill:#97b514;fill-opacity:1;fill-rule:nonzero;stroke:none"
         d="m 96.746094,189.17578 -27.398438,-20.01172 23.207032,-42.4414 3.351562,-6.12891 23.40234,16.20703 c 0,0 -2.61718,37.87109 -22.562496,52.375 z m 0,0"
         id="path621" />
      <path
         style="fill:#a61e19;fill-opacity:1;fill-rule:nonzero;stroke:none"
         d="M 335.72656,196.79297 C 316.12891,176.59766 244.46094,115.92188 210.26172,88.664062 176.05859,61.40625 133.16406,79.179688 115.58203,111.16406 98,143.15234 113.42188,151.75391 103.99219,165.61719 c -9.425784,13.86718 -34.183596,23.02343 -41.152346,58.26953 -6.972656,35.24609 29.492187,59.33203 55.433596,67.29297 25.9414,7.96484 42.72265,7.96093 87.35156,30.68359 44.625,22.72656 79.91016,29.6875 79.91016,29.6875 0,0 22.40234,6.87891 39.35546,-18.85547 11.36329,-17.25781 9.14844,-25.55078 29.64063,-50.20312 20.48828,-24.64844 0.79297,-65.5 -18.80469,-85.69922 z m -263.015622,42.2539 12.691406,-28.52343 46.531246,76.0625 z m 0,0"
         id="path623" />
      <path
         style="fill:#f5cf91;fill-opacity:1;fill-rule:nonzero;stroke:none"
         d="m 340.30078,136.125 c 0,0 6.13672,18.10937 2.27344,34.84375 -3.86719,16.73437 -16.30078,32.0625 -16.30078,32.0625 0,0 -12.60547,20.19531 -16.46875,13.75781 -3.86719,-6.43359 1.28906,-10.29687 1.28906,-10.29687 0,0 5.15234,-3.85938 7.73047,-7.72266 2.57422,-3.86328 11.21484,-25.18359 6.4414,-39.47656 -0.85546,-2.57422 -4.08593,-21.40235 -4.08593,-21.40235 0,0 11.38672,-13.35546 19.12109,-1.76562 z m 0,0"
         id="path625" />
    </g>
  </g>
</svg>
