<?xml version="1.0" encoding="UTF-8" standalone="no"?>
<!-- Created with Inkscape (http://www.inkscape.org/) -->

<svg
   width="106.37038mm"
   height="131.12799mm"
   viewBox="0 0 106.37038 131.12799"
   version="1.1"
   id="svg505"
   inkscape:version="1.1 (c68e22c387, 2021-05-23)"
   sodipodi:docname="woman_carrying_apple.svg"
   xmlns:inkscape="http://www.inkscape.org/namespaces/inkscape"
   xmlns:sodipodi="http://sodipodi.sourceforge.net/DTD/sodipodi-0.dtd"
   xmlns="http://www.w3.org/2000/svg"
   xmlns:svg="http://www.w3.org/2000/svg">
  <sodipodi:namedview
     id="namedview507"
     pagecolor="#505050"
     bordercolor="#ffffff"
     borderopacity="1"
     inkscape:pageshadow="0"
     inkscape:pageopacity="0"
     inkscape:pagecheckerboard="1"
     inkscape:document-units="mm"
     showgrid="false"
     fit-margin-top="0"
     fit-margin-left="0"
     fit-margin-right="0"
     fit-margin-bottom="0"
     inkscape:zoom="0.77771465"
     inkscape:cx="-274.52228"
     inkscape:cy="448.1078"
     inkscape:window-width="1284"
     inkscape:window-height="1053"
     inkscape:window-x="3197"
     inkscape:window-y="182"
     inkscape:window-maximized="0"
     inkscape:current-layer="layer1" />
  <defs
     id="defs502">
    <clipPath
       xml:id="clip1"
       id="clip1">
      <path
         d="m 192,3.011719 h 64 V 61 h -64 z m 0,0"
         id="path509" />
    </clipPath>
  </defs>
  <g
     inkscape:label="Layer 1"
     inkscape:groupmode="layer"
     id="layer1"
     transform="translate(-79.835426,-30.033942)">
    <g
       xml:id="surface1"
       id="surface1"
       transform="matrix(0.35277778,0,0,0.35277778,65.069224,28.971474)">
      <path
         style="fill:#ca6317;fill-opacity:1;fill-rule:nonzero;stroke:none"
         d="m 247.65234,277.34375 c 0,0 -24.91015,31.60937 -0.48828,49.65234 24.41797,18.03907 38.48438,21.59766 38.48438,21.59766 0,0 -0.14063,4.63672 -7.01172,7.94141 -6.8711,3.30859 -6.8711,3.30859 -6.8711,3.30859 0,0 8.92969,2.4375 16.84375,-2.21484 7.91797,-4.65235 7.0625,-8.60547 7.0625,-8.60547 0,0 -7.5039,-13.14453 -18.74609,-23.14063 -11.23828,-9.99609 -21.47656,-7.05859 -16.73047,-23.21875 4.75391,-16.16406 11.03125,-22.59375 11.03125,-22.59375 0,0 -16.86719,-13.05859 -23.57422,-2.72656 z m 0,0"
         id="path514" />
      <path
         style="fill:#ca6317;fill-opacity:1;fill-rule:nonzero;stroke:none"
         d="m 236.05078,246.17578 c 0,0 -39.51953,37.32031 -44.73437,52.61328 -5.01563,14.71094 -7.88672,28.98047 -4.07422,44.9961 3.8164,16.01171 6.10156,19.82421 6.10156,19.82421 l -14.48828,0.76172 c 0,0 19.82812,9.91407 21.35156,7.62891 1.52734,-2.28906 1.52734,3.04687 1.52734,-2.28906 0,-5.33985 -5.33984,-12.20313 3.04688,-32.02735 8.39062,-19.82812 9.91797,-25.16406 27.45703,-36.60156 17.53906,-11.44141 36.60547,-22.87891 36.60547,-30.50391 0,-7.625 -9.91406,-35.07812 -32.79297,-24.40234 z m 0,0"
         id="path516" />
      <path
         style="fill:#000000;fill-opacity:1;fill-rule:nonzero;stroke:none"
         d="m 185.85937,363.73437 h -8.38671 c 0,0 11.1289,8.51172 14.17968,9.27344 5.34766,1.33594 7.41797,1.84766 9.02735,1.67188 3.00781,-0.33594 1.96093,-4.08203 1.96093,-4.08203 0,0 -15.67187,2.41015 -16.78125,-6.86329 z m 0,0"
         id="path518" />
      <path
         style="fill:#000000;fill-opacity:1;fill-rule:nonzero;stroke:none"
         d="m 278.63672,356.53516 c 0,0 5.09765,5.67187 11.0664,-0.92188 5.96485,-6.58984 4.92188,-9.01562 4.92188,-9.01562 l 4.63672,3.91015 c 0,0 -7.16016,8.6875 -17.625,10.50781 -10.46485,1.82032 -9.875,-1.17187 -9.875,-1.17187 z m 0,0"
         id="path520" />
      <path
         style="fill:#f5cf91;fill-opacity:1;fill-rule:nonzero;stroke:none"
         d="m 278.25,250.51562 -6.64844,-0.76953 c -0.21484,-0.80078 -0.375,-1.23828 -0.375,-1.23828 l -38.28125,-3.30078 c 0,0 -27.91015,24.86328 -37.4375,40.40625 -9.53125,15.54297 -12.03515,34.59766 -12.03515,42.62109 0,8.02344 0,8.02344 0,8.02344 0,0 13.03906,5.51563 16.54687,5.51563 3.51172,0 5.51953,0 5.51953,0 0,0 3.50781,-19.55469 16.04297,-30.58594 3.04297,-2.67578 6.61719,-5.02734 10.4375,-7.27734 -0.10937,8.24609 4.46484,15.30859 7.61719,19.8125 3.51172,5.01562 20.55859,15.04687 20.55859,15.04687 0,0 0,0 4.01172,-3.01172 4.01172,-3.00781 10.03125,-14.53906 10.03125,-14.53906 0,0 -8.52734,-12.03906 -10.03125,-17.05078 -1.50391,-5.01563 6.51563,-12.53516 16.04688,-30.08594 9.52734,-17.55078 -2.00391,-23.56641 -2.00391,-23.56641 z m 0,0"
         id="path522" />
      <path
         style="fill:#97b514;fill-opacity:1;fill-rule:nonzero;stroke:none"
         d="m 263.03125,53.484375 c 49.83594,41.507813 35.25781,67.468755 26.19922,106.218745 -15.35938,65.76172 -82.47266,106.31641 -149.92578,90.5586 C 71.863281,234.51172 29.652344,168.43359 45.011719,102.67578 56.527344,53.351562 97.164062,18.214844 145.21094,10.375 c 16.02734,-2.613281 38.4414,2.320312 55.03906,20.011719 20.44922,21.796875 42.66016,6.34375 62.78125,23.097656 z m 0,0"
         id="path524" />
      <g
         clip-rule="nonzero"
         clip-path="url(#clip1)"
         id="g528">
        <path
           style="fill:#000000;fill-opacity:1;fill-rule:nonzero;stroke:none"
           d="m 192.57031,54.132812 c 0,0 23.42188,-45.617187 38.96875,-48.363281 15.53906,-2.757812 15.53906,-2.757812 15.53906,-2.757812 0,0 15.8125,14.328125 5.25391,13.996093 -10.56641,-0.34375 -28.60156,3.957032 -35.94141,17.140626 -7.32812,13.191406 -23.55468,37.070312 -23.82031,19.984374 z m 0,0"
           id="path526" />
      </g>
      <path
         style="fill:#ca6317;fill-opacity:1;fill-rule:nonzero;stroke:none"
         d="m 273.41797,185.46094 c 0,0 12.00781,-8.96094 12.00781,-14.29688 0,-5.33984 -4.47656,-4.76562 -1.42969,-8.57812 3.05078,-3.81641 5.4336,-4.57813 5.4336,-4.57813 l -0.75782,-4.57422 c 0,0 8.76563,-1.14453 17.91797,1.14453 9.15235,2.28907 13.34766,5.71875 6.48438,14.86719 -6.86328,9.15235 -14.48828,7.625 -19.06641,14.48828 -4.57422,6.86328 -7.625,10.67578 -7.625,10.67578 z m 0,0"
         id="path530" />
      <path
         style="fill:#000000;fill-opacity:1;fill-rule:nonzero;stroke:none"
         d="m 306.44922,150.71875 c 0,0 -4.57031,1.52344 -3.8086,7.625 0.76172,6.10156 -8.01171,6.72656 -5.33984,9.91406 3.09766,3.69141 -4.01172,7.17578 -1.52344,12.19922 3.11328,6.30078 11.4375,2.28906 11.4375,2.28906 0,0 -6.86718,8.38672 3.04688,9.14844 9.91797,0.76172 10.67969,-5.33594 10.67969,-5.33594 0,0 5.82812,5.77344 14.14062,-1.42968 5.01172,-4.34766 -0.41406,-10.77344 -0.41406,-10.77344 0,0 10.67578,-1.52344 8.39062,-9.14844 -2.28906,-7.625 -10.67968,-6.86328 -10.67968,-6.86328 0,0 3.05078,-3.05078 0,-6.10156 -3.04688,-3.04688 -6.10157,0 -6.10157,0 0,0 0.76563,-6.09766 -5.33593,-6.85938 -6.10157,-0.76562 -7.62891,3.04688 -7.62891,3.04688 0,0 -4.57422,-0.76172 -6.86328,2.28906 z m 0,0"
         id="path532" />
      <path
         style="fill:#a61e19;fill-opacity:1;fill-rule:nonzero;stroke:none"
         d="m 232.94531,245.20703 c 3.33203,0.78906 6.56641,1.96094 9.79297,3.34766 2.03125,0.87109 4.02344,1.82031 6.01563,2.77343 2.21484,0.21875 4.40234,0.46094 6.5625,0.70704 5.32421,0.60937 10.63671,1.33593 15.95312,2.04296 3.13281,-1.16406 6.28516,-2.28125 9.44922,-3.36328 -1.6875,-6.46484 -5.77734,-6.53515 -5.77734,-12.92187 0,-9.15235 9.91406,-22.11328 14.49218,-32.02735 4.57422,-9.91406 4.57422,-16.01562 -2.28906,-22.8789 -6.86328,-6.86328 -16.77734,0 -16.77734,0 0,0 -15.25,11.4414 -19.82813,19.0625 -4.57422,7.6289 0,17.53906 0,21.35156 0,3.32813 -7.55469,11.30859 -17.59375,21.90625 z m 0,0"
         id="path534" />
      <path
         style="fill:#ca6317;fill-opacity:1;fill-rule:nonzero;stroke:none"
         d="m 281.62109,185.33594 c 0,0 -3.3164,0 -11.92578,2.20312 -8.61328,2.20313 -24.51172,6.60938 -36.4414,3.67188 -11.92188,-2.9375 -21.19922,-5.8711 -25.83594,-9.54297 C 202.77734,178 200.34375,169.75 200.34375,169.75 l -4.67969,6.01562 c 0,0 0.0547,6.42579 6.01953,9.36329 5.96094,2.93359 -0.89062,-1.26172 9.70703,7.54687 10.60157,8.80859 27.16407,15.41406 34.45313,16.14844 7.28906,0.73437 25.41016,-1.71094 33.78906,-5.8711 10.3125,-5.12109 7.94922,-16.88281 1.98828,-17.61718 z m 0,0"
         id="path536" />
      <path
         style="fill:#a61e19;fill-opacity:1;fill-rule:nonzero;stroke:none"
         d="m 302.82031,151.23047 4.39453,31.51562 8.14453,-35.52734 c 0,0 -9.52734,-2.50391 -12.53906,4.01172 z m 0,0"
         id="path538" />
    </g>
  </g>
</svg>
